<?xml version="1.0" standalone="no"?>
<!DOCTYPE svg PUBLIC "-//W3C//DTD SVG 1.1//EN" "http://www.w3.org/Graphics/SVG/1.1/DTD/svg11.dtd" >
<svg xmlns="http://www.w3.org/2000/svg" xmlns:xlink="http://www.w3.org/1999/xlink" version="1.1">
<metadata>
Created by FontForge 20230101 at Fri Feb 12 07:24:30 2016
 By Unknown
(r) (c) 1996 [T-26] Chicago www.t26.com 773.862.1201 T0500 ID#5105875 designer: Tomi Haaparanta
</metadata>
<defs>
<font id="TargetBookW00-Regular" horiz-adv-x="327" >
  <font-face 
    font-family="TargetBook"
    font-weight="400"
    font-stretch="normal"
    units-per-em="1350"
    panose-1="1 0 0 0 0 0 0 0 0 0"
    ascent="1080"
    descent="-270"
    x-height="676"
    cap-height="905"
    bbox="-60.0833 -313 1629 1270"
    underline-thickness="67"
    underline-position="-168"
    unicode-range="U+0020-F002"
  />
<missing-glyph horiz-adv-x="675" 
d="M84 0v1000h507v-1000h-507zM169 84h337v832h-337v-832z" />
    <glyph glyph-name=".notdef" horiz-adv-x="675" 
d="M84 0v1000h507v-1000h-507zM169 84h337v832h-337v-832z" />
    <glyph glyph-name="glyph1" horiz-adv-x="0" 
 />
    <glyph glyph-name="glyph2" horiz-adv-x="354" 
 />
    <glyph glyph-name="space" unicode=" " horiz-adv-x="354" 
 />
    <glyph glyph-name="exclam" unicode="!" 
d="M230 272q0 -43 -35 -43h-68q-39 0 -39 44v643q0 14 11.5 26.5t28.5 12.5h60q42 0 42 -38v-645zM230 44q0 -18 -14.5 -31t-33.5 -13h-56q-38 0 -38 38v72q0 40 44 40h56q42 0 42 -43v-63z" />
    <glyph glyph-name="quotedbl" unicode="&#x22;" horiz-adv-x="549" 
d="M455 786q0 -43 -42 -43h-56q-44 0 -44 40v129q0 38 38 38h56q19 0 33.5 -13t14.5 -31v-120zM230 786q0 -43 -42 -43h-56q-44 0 -44 40v129q0 38 38 38h56q19 0 33.5 -13t14.5 -31v-120z" />
    <glyph glyph-name="numbersign" unicode="#" horiz-adv-x="1164" 
d="M1103 469q0 -91 -65 -155.5t-156 -64.5t-156 64.5t-65 155.5q0 92 64.5 156.5t156.5 64.5q91 0 156 -65t65 -156zM1089 40q0 -17 -12.5 -28.5t-26.5 -11.5h-329q-44 0 -44 39v128q0 35 43 35h331q38 0 38 -42v-120zM611 38q0 -38 -42 -38h-40q-32 0 -60 39l-204 283
q-9 12 -19 12q-16 0 -16 -25v-271q0 -38 -42 -38h-60q-17 0 -28.5 12.5t-11.5 26.5v593q0 44 39 44h46q26 0 57 -43l203 -278q12 -17 23 -17q13 0 13 27v267q0 44 39 44h68q35 0 35 -43v-595zM982 467q0 41 -30 71t-71 30t-71 -30t-30 -71t30 -71t71 -30t71 30t30 71z" />
    <glyph glyph-name="dollar" unicode="$" horiz-adv-x="639" 
d="M591 261q-4 -120 -92.5 -202.5t-209.5 -78.5q-8 0 -24 2.5t-25 2.5q-23 0 -33 -29l-17 -49q-8 -24 -35 -24q-9 0 -18 3l-56 20q-27 10 -27 39q0 7 2 12l160 439q2 4 2 9q0 24 -22 35q-65 33 -102.5 96.5t-34.5 138.5q4 106 81 178t182 69q19 -1 42 -5q39 -7 50 23l19 52
q12 32 34 32q8 0 18 -4l64 -23q23 -8 23 -30q0 -10 -5 -23l-134 -370q-3 -10 -3 -18q0 -24 20 -36q66 -40 104 -108q40 -71 37 -151zM338 732q3 9 3 17q0 24 -24 25q-44 1 -76.5 -29.5t-33.5 -75.5q-1 -48 39 -81q8 -7 25 -2q17 6 21 18zM437 267q1 58 -39 99q-8 8 -24 6
q-18 -2 -22 -14l-68 -194q-10 -29 10 -30q56 -3 99 37t44 96z" />
    <glyph glyph-name="percent" unicode="%" horiz-adv-x="1210" 
d="M1157 196q0 -91 -65 -155.5t-156 -64.5t-156 64.5t-65 155.5q0 92 64.5 156.5t156.5 64.5q91 0 156 -65t65 -156zM849 609l-435 -637q-11 -16 -30 -16q-13 0 -26 9l-24 17q-33 23 -11 55l337 501q3 5 3 11q0 13 -20.5 25.5t-75.5 16.5q-51 3 -78 -3t-27 -25q0 -5 3 -12
q17 -43 17 -85q0 -91 -65 -155.5t-156 -64.5t-156 64.5t-65 155.5q0 92 64.5 156.5t156.5 64.5q61 0 159.5 -16t164.5 -16q68 0 148 12q21 3 40 14t25 11q7 0 14 -5l33 -22q16 -10 16 -26q0 -13 -12 -30zM1036 194q0 41 -30 71t-71 30t-71 -30t-30 -71t30 -71t71 -30t71 30
t30 71zM361 464q0 41 -30 71t-71 30t-71 -30t-30 -71t30 -71t71 -30t71 30t30 71z" />
    <glyph glyph-name="ampersand" unicode="&#x26;" horiz-adv-x="836" 
d="M841 415q0 -17 -12.5 -28.5t-26.5 -11.5h-120q-23 0 -23 -23v-309q0 -43 -35 -43h-288q-112 0 -189 72t-77 181q0 101 68 174q20 22 0 45q-68 79 -68 180q0 108 77.5 180.5t187.5 72.5h114q42 0 42 -42v-59q0 -15 -13 -26.5t-31 -11.5h-95q-56 0 -96 -33t-40 -86
q0 -54 40 -90t95 -36h452q38 0 38 -42v-64zM517 186v147q0 17 -13 30t-30 13h-122q-56 0 -96 -37t-40 -91q0 -52 39 -81t96 -29h128q38 0 38 48z" />
    <glyph glyph-name="quotesingle" unicode="'" 
d="M230 786q0 -43 -42 -43h-56q-44 0 -44 40v129q0 38 38 38h56q19 0 33.5 -13t14.5 -31v-120z" />
    <glyph glyph-name="parenleft" unicode="(" horiz-adv-x="450" 
d="M454 -169q0 -39 -38 -44q-126 0 -220.5 87.5t-94.5 205.5v467q0 117 92 209.5t216 92.5q14 0 26 -11.5t12 -28.5v-60q0 -42 -38 -42q-72 0 -121 -55q-45 -51 -45 -116v-447q0 -65 40 -108q47 -50 132 -50q39 0 39 -40v-60z" />
    <glyph glyph-name="parenright" unicode=")" horiz-adv-x="435" 
d="M354 80q0 -118 -94.5 -205.5t-220.5 -87.5q-38 5 -38 44v60q0 40 39 40q85 0 132 50q40 43 40 108v447q0 65 -45 116q-49 55 -121 55q-38 0 -38 42v60q0 17 12 28.5t26 11.5q124 0 216 -92.5t92 -209.5v-467z" />
    <glyph glyph-name="asterisk" unicode="*" horiz-adv-x="690" 
d="M599 688q-6 -10 -19 -20q-8 -6 -19 -6q-12 0 -37 9.5t-34 9.5q-20 0 -20 -21q0 -15 35 -31.5t40 -35.5t4 -29q-6 -45 -48 -48q-8 -1 -27 4.5t-35 42.5q-16 34 -29 34q-23 0 -23 -20q0 -9 9 -32t9 -36q0 -10 -5 -18t-19 -24q-18 -13 -36 -13t-32 13q-6 6 -15 23
q-4 8 -4 18q0 13 9 37t9 33q0 21 -23 21q-14 0 -30.5 -36t-35.5 -41t-31 -3q-47 7 -48 48q0 9 6 27t43 35q34 16 34 29q0 23 -20 23q-9 0 -32 -9t-36 -9q-10 0 -18 5t-24 19q-13 18 -13 36t13 32q6 7 23 15q8 4 17 4q13 0 36.5 -8.5t31.5 -8.5q22 0 22 22q0 14 -38.5 31
t-40.5 37q-1 16 3 29q10 33 42 42q11 3 28 1q21 -2 37.5 -41t30.5 -39q22 0 22 20q0 10 -10 35t-10 37t7 20q11 12 22 18q32 16 60 0q10 -6 20 -19q6 -8 6 -19q0 -12 -9.5 -36.5t-9.5 -33.5q0 -20 22 -20q14 0 30.5 38.5t36.5 40.5q15 1 28 -3q35 -11 43 -43q3 -10 0 -27
q-3 -20 -40.5 -37t-37.5 -31q0 -22 20 -22q9 0 34.5 10t37.5 10t20 -7q12 -11 18 -22q16 -32 0 -60z" />
    <glyph glyph-name="plus" unicode="+" horiz-adv-x="690" 
d="M619 325q0 -17 -12.5 -28.5t-26.5 -11.5h-118q-42 0 -42 -39v-118q0 -44 -39 -44h-68q-35 0 -35 43v121q0 37 -39 37h-118q-44 0 -44 39v68q0 35 43 35h120q38 0 38 36v125q0 38 42 38h60q17 0 28.5 -12.5t11.5 -26.5v-121q0 -39 42 -39h119q38 0 38 -42v-60z" />
    <glyph glyph-name="comma" unicode="," 
d="M230 9q0 -35 -28 -73t-64 -50q-6 -2 -13.5 8t-7.5 18q0 5 4 7q46 20 50 53q3 28 -19 28h-26q-38 0 -38 38v72q0 40 44 40h56q42 0 42 -43v-98z" />
    <glyph glyph-name="hyphen" unicode="-" horiz-adv-x="564" 
d="M489 325q0 -17 -12.5 -28.5t-26.5 -11.5h-329q-44 0 -44 39v68q0 35 43 35h331q38 0 38 -42v-60z" />
    <glyph glyph-name="hyphen" unicode="&#x2010;" horiz-adv-x="564" 
d="M489 325q0 -17 -12.5 -28.5t-26.5 -11.5h-329q-44 0 -44 39v68q0 35 43 35h331q38 0 38 -42v-60z" />
    <glyph glyph-name="hyphen" unicode="&#x2010;" horiz-adv-x="564" 
d="M489 325q0 -17 -12.5 -28.5t-26.5 -11.5h-329q-44 0 -44 39v68q0 35 43 35h331q38 0 38 -42v-60z" />
    <glyph glyph-name="period" unicode="." 
d="M230 44q0 -18 -14.5 -31t-33.5 -13h-56q-38 0 -38 38v72q0 40 44 40h56q42 0 42 -43v-63z" />
    <glyph glyph-name="slash" unicode="/" horiz-adv-x="750" 
d="M742 854l-608 -869q-11 -16 -30 -16q-14 0 -27 9l-49 35q-13 10 -16 27q-2 16 6 28l607 867q16 23 33 23q11 0 24 -9l56 -39q16 -11 16 -26q0 -13 -12 -30z" />
    <glyph glyph-name="zero" unicode="0" horiz-adv-x="840" 
d="M773 337q0 -145 -103 -248t-248 -103t-248 102.5t-103 248.5q0 145 103 248t248 103t248 -103t103 -248zM633 337q0 87 -62 149t-149 62t-149 -62t-62 -149t62 -149t149 -62t149 62t62 149z" />
    <glyph glyph-name="one" unicode="1" horiz-adv-x="357" 
d="M268 38q0 -38 -42 -38h-60q-17 0 -28.5 12.5t-11.5 26.5v459q0 36 -36 36q-44 0 -44 39v68q0 35 43 35h144q35 0 35 -43v-595z" />
    <glyph glyph-name="two" unicode="2" horiz-adv-x="641" 
d="M617 40q0 -17 -12.5 -28.5t-26.5 -11.5h-488q-36 0 -36 32q0 13 10 25l237 284q39 47 39 104q0 70 -55 109q-26 18 -72 18q-45 0 -83 -16q-8 -3 -15 -3q-17 0 -24 19l-26 77q-2 6 -2 11q0 18 24 28q57 23 134 23q105 0 163 -40q108 -75 108 -217q0 -111 -77 -197l-69 -77
q-5 -7 -5 -16q0 -22 25 -22h213q38 0 38 -42v-60z" />
    <glyph glyph-name="three" unicode="3" horiz-adv-x="658" 
d="M552 -26q0 -118 -83 -202.5t-200 -84.5h-131q-14 0 -26.5 11.5t-12.5 28.5v60q0 42 38 42h116q61 0 105.5 40t44.5 99q0 60 -44.5 101t-106.5 41h-114q-14 0 -26.5 11.5t-12.5 28.5v61q0 42 38 42h116q61 0 105.5 40t44.5 99q0 60 -44.5 101t-106.5 41h-114
q-14 0 -26.5 11.5t-12.5 28.5v60q0 42 38 42h133q116 0 199 -81.5t83 -196.5q0 -108 -72 -192q-21 -24 0 -47q72 -78 72 -185z" />
    <glyph glyph-name="four" unicode="4" horiz-adv-x="764" 
d="M727 40q0 -17 -12.5 -28.5t-26.5 -11.5h-78q-36 0 -36 -42v-160q0 -38 -42 -38h-60q-17 0 -28.5 12.5t-11.5 26.5v165q0 36 -37 36h-349q-44 0 -44 30q0 14 11 28l504 637q16 21 33 21q24 0 24 -37v-499q0 -38 38 -38h77q38 0 38 -42v-60zM432 177v137q0 22 -12 22
q-8 0 -18 -12l-120 -150q-3 -4 -3 -10q0 -22 19 -22h100q34 0 34 35z" />
    <glyph glyph-name="five" unicode="5" horiz-adv-x="626" 
d="M550 34q0 -116 -81.5 -199t-196.5 -83q-77 0 -142.5 38t-103.5 101q-13 21 10 35l66 40q28 17 45 -13q38 -69 119 -69q60 0 101 44.5t41 106.5v46q0 61 -40 105.5t-99 44.5h-145q-36 0 -36 31v372q0 42 42 42h337q14 0 26.5 -11.5t12.5 -28.5v-60q0 -42 -38 -42h-209
q-29 0 -29 -32v-102q0 -37 33 -37q118 0 202.5 -83t84.5 -200v-46z" />
    <glyph glyph-name="six" unicode="6" horiz-adv-x="840" 
d="M773 337q0 -145 -103 -248t-248 -103t-247.5 103t-103.5 248q-1 76 25 135q22 53 77 117l302 355q18 21 32 21q12 0 26 -12l52 -44q13 -11 13 -25q0 -13 -14 -30l-121 -140q-6 -7 -6 -14q0 -14 16 -16q128 -18 214 -116.5t86 -230.5zM633 337q0 87 -62 149t-149 62
t-149 -62t-62 -149t62 -149t149 -62t149 62t62 149z" />
    <glyph glyph-name="seven" unicode="7" horiz-adv-x="833" 
d="M763 636l-384 -836q-18 -40 -52 -40h-94q-24 0 -24 25q0 14 8 27l312 686q3 7 3 13q0 23 -38 23h-382q-44 0 -44 39v68q0 35 43 35h626q28 0 28 -29q0 -6 -2 -11z" />
    <glyph glyph-name="eight" unicode="8" horiz-adv-x="757" 
d="M672 253q0 -111 -77.5 -190t-188.5 -79h-44q-111 0 -188.5 79t-77.5 190q0 101 68 174q20 22 0 45q-68 79 -68 180q0 108 78 185t187 77h46q109 0 187 -77t78 -185q0 -101 -68 -180q-20 -23 0 -45q68 -73 68 -174zM526 647q0 53 -40.5 90.5t-95.5 37.5h-12
q-55 0 -95.5 -37.5t-40.5 -90.5q0 -54 40 -90t95 -36h14q55 0 95 36t40 90zM526 248q0 54 -40 91t-96 37h-12q-56 0 -96 -37t-40 -91q0 -53 40 -89.5t95 -36.5h14q55 0 95 36.5t40 89.5z" />
    <glyph glyph-name="nine" unicode="9" horiz-adv-x="840" 
d="M767 335q1 -76 -25 -135q-22 -53 -77 -117l-302 -355q-18 -21 -32 -21q-12 0 -26 12l-52 44q-13 11 -13 25q0 13 14 30l121 140q6 7 6 14q0 14 -16 16q-128 18 -214 116.5t-86 230.5q0 146 102.5 248.5t248.5 102.5q145 0 247.5 -103t103.5 -248zM627 335q0 87 -62 149
t-149 62t-149 -62t-62 -149t62 -149t149 -62t149 62t62 149z" />
    <glyph glyph-name="colon" unicode=":" 
d="M230 570q0 -18 -14.5 -31t-33.5 -13h-56q-38 0 -38 38v72q0 40 44 40h56q42 0 42 -43v-63zM230 44q0 -18 -14.5 -31t-33.5 -13h-56q-38 0 -38 38v72q0 40 44 40h56q42 0 42 -43v-63z" />
    <glyph glyph-name="semicolon" unicode=";" 
d="M230 570q0 -18 -14.5 -31t-33.5 -13h-56q-38 0 -38 38v72q0 40 44 40h56q42 0 42 -43v-63zM230 9q0 -35 -28 -73t-64 -50q-6 -2 -13.5 8t-7.5 18q0 5 4 7q46 20 50 53q3 28 -19 28h-26q-38 0 -38 38v72q0 40 44 40h56q42 0 42 -43v-98z" />
    <glyph glyph-name="less" unicode="&#x3c;" horiz-adv-x="534" 
d="M469 53l-48 -48q-11 -11 -23 -11q-15 0 -32 17l-313 312q-13 13 -13 30q0 18 13 31l309 309q10 10 27 10t29 -12l42 -42q14 -14 14 -31q0 -14 -11 -25l-212 -212q-10 -10 -10 -25q0 -19 12 -31l213 -214q17 -17 17 -31q0 -13 -14 -27z" />
    <glyph glyph-name="equal" unicode="=" horiz-adv-x="690" 
d="M619 445q0 -17 -12.5 -28.5t-26.5 -11.5h-459q-44 0 -44 39v68q0 35 43 35h461q38 0 38 -42v-60zM619 205q0 -17 -12.5 -28.5t-26.5 -11.5h-459q-44 0 -44 39v68q0 35 43 35h461q38 0 38 -42v-60z" />
    <glyph glyph-name="greater" unicode="&#x3e;" horiz-adv-x="534" 
d="M483 323l-313 -312q-17 -17 -32 -17q-12 0 -23 11l-48 48q-14 14 -14 27q0 14 17 31l213 214q12 12 12 31q0 15 -10 25l-212 212q-11 11 -11 25q0 17 14 31l42 42q12 12 29 12t27 -10l309 -309q13 -13 13 -31q0 -17 -13 -30z" />
    <glyph glyph-name="question" unicode="?" horiz-adv-x="581" 
d="M543 617q0 -102 -57 -178q-49 -65 -119 -87q-33 -10 -33 -47v-37q0 -44 -43 -44h-60q-39 0 -39 42v169q0 31 36 31h34q59 0 99 44.5t40 105.5v25q0 62 -41 106.5t-101 44.5q-81 0 -119 -69q-17 -30 -45 -13l-66 40q-23 14 -10 35q38 63 103.5 101t142.5 38
q115 0 196.5 -83t81.5 -199v-25zM335 44q0 -18 -14.5 -31t-33.5 -13h-56q-38 0 -38 38v72q0 40 44 40h56q42 0 42 -43v-63z" />
    <glyph glyph-name="at" unicode="@" horiz-adv-x="840" 
d="M773 337q0 -130 -76 -218q-45 -52 -106 -52q-46 0 -66 23q-41 47 -69 47q-7 0 -14 -3q-23 -10 -48 -10q-62 0 -109.5 54t-47.5 131q0 41 14 81q46 129 160 129q52 0 83 -24q6 -5 13 -5q20 0 29 32q5 18 31 18q47 0 47 -32q0 -8 -6 -16q-71 -100 -71 -226q0 -50 15 -90
q13 -34 41 -34q27 0 54 27q23 22 39.5 71.5t16.5 96.5q0 116 -82.5 198.5t-198.5 82.5t-198.5 -82.5t-82.5 -198.5t82.5 -198.5t198.5 -82.5q44 0 53 -1q35 -6 35 -31q0 -38 -88 -38q-145 0 -248 103t-103 248t103 248t248 103t248 -103t103 -248zM480 383q0 25 -13 43
t-45 18q-75 0 -105 -87q-7 -21 -7 -42q0 -46 30.5 -77t71.5 -31q24 0 46 12q11 6 11 35v45q11 97 11 84z" />
    <glyph glyph-name="A" unicode="A" horiz-adv-x="847" 
d="M840 46q4 -10 4 -18q0 -28 -35 -28h-73q-45 0 -61 40l-65 164q-13 32 -43 32h-292q-30 0 -41 -27l-67 -169q-16 -40 -61 -40h-80q-31 0 -31 21q0 9 7 25l337 818q17 41 56 41h51q40 0 57 -41zM528 407l-82 205q-9 23 -25 23q-17 0 -27 -24l-82 -206q-3 -8 2.5 -17.5
t14.5 -9.5h183q10 0 15 10t1 19z" />
    <glyph glyph-name="B" unicode="B" horiz-adv-x="709" 
d="M651 253q0 -109 -77 -181t-189 -72h-255q-35 0 -35 43v820q0 42 42 42h249q110 0 187.5 -72.5t77.5 -180.5q0 -101 -68 -180q-20 -23 0 -45q68 -73 68 -174zM505 647q0 53 -40 86t-96 33h-94q-17 0 -27.5 -14.5t-10.5 -29.5v-160q0 -17 12 -29t29 -12h92q55 0 95 36
t40 90zM505 248q0 54 -40 91t-96 37h-89q-17 0 -30 -13t-13 -30v-147q0 -48 38 -48h95q57 0 94 28q41 30 41 82z" />
    <glyph glyph-name="C" unicode="C" horiz-adv-x="746" 
d="M702 110q-107 -124 -268 -124q-145 0 -248 103t-103 248v237q0 145 103 248t248 103q129 0 227 -84q20 -17 3 -37l-52 -63q-12 -14 -23 -14q-9 0 -23 11q-57 47 -132 47q-87 0 -149 -62t-62 -149v-237q0 -87 62 -149t149 -62q92 0 155 69q21 23 43 3l64 -56q19 -17 6 -32
z" />
    <glyph glyph-name="D" unicode="D" horiz-adv-x="790" 
d="M711 293q0 -118 -94.5 -205.5t-220.5 -87.5h-266q-35 0 -35 43v820q0 42 42 42h266q124 0 216 -92.5t92 -209.5v-310zM569 302v290q0 63 -48.5 117t-115.5 54h-130q-38 0 -38 -41v-532q0 -48 38 -48h125q66 0 117.5 50.5t51.5 109.5z" />
    <glyph glyph-name="E" unicode="E" horiz-adv-x="709" 
d="M651 40q0 -17 -12.5 -28.5t-26.5 -11.5h-482q-35 0 -35 43v820q0 42 42 42h475q14 0 26.5 -11.5t12.5 -28.5v-60q0 -42 -38 -42h-338q-38 0 -38 -41v-142q0 -17 12 -29t29 -12h287q38 0 38 -42v-60q0 -17 -12.5 -28.5t-26.5 -11.5h-284q-17 0 -30 -13t-13 -30v-164
q0 -48 38 -48h338q38 0 38 -42v-60z" />
    <glyph glyph-name="F" unicode="F" horiz-adv-x="660" 
d="M651 805q0 -42 -38 -42h-338q-38 0 -38 -41v-152q0 -17 12 -29t29 -12h287q38 0 38 -42v-60q0 -17 -12.5 -28.5t-26.5 -11.5h-284q-17 0 -30 -13t-13 -30v-300q0 -44 -39 -44h-68q-35 0 -35 43v820q0 42 42 42h475q14 0 26.5 -11.5t12.5 -28.5v-60z" />
    <glyph glyph-name="G" unicode="G" horiz-adv-x="792" 
d="M708 43q0 -43 -35 -43h-239q-145 0 -248 103t-103 248v223q0 145 103 248t248 103q129 0 227 -84q20 -17 3 -37l-52 -63q-12 -14 -23 -14q-9 0 -23 11q-57 47 -132 47q-87 0 -149 -62t-62 -149v-223q0 -87 62 -149t149 -62h96q36 0 36 34v128q0 41 -38 41h-150
q-38 0 -38 42v60q0 17 12.5 28.5t26.5 11.5h287q42 0 42 -42v-400z" />
    <glyph glyph-name="H" unicode="H" horiz-adv-x="858" 
d="M767 38q0 -38 -42 -38h-60q-17 0 -28.5 12.5t-11.5 26.5v322q0 31 -30 31h-330q-35 0 -35 -35v-319q0 -38 -42 -38h-60q-17 0 -28.5 12.5t-11.5 26.5v822q0 44 39 44h68q35 0 35 -43v-291q0 -37 36 -37h328q31 0 31 29v298q0 44 39 44h68q35 0 35 -43v-824z" />
    <glyph glyph-name="I" unicode="I" horiz-adv-x="331" 
d="M230 38q0 -38 -42 -38h-60q-17 0 -28.5 12.5t-11.5 26.5v822q0 44 39 44h68q35 0 35 -43v-824z" />
    <glyph glyph-name="J" unicode="J" horiz-adv-x="331" 
d="M226 -82q0 -69 -41 -112q-43 -46 -118 -46h-82q-14 0 -26.5 11.5t-12.5 28.5v60q0 42 38 42h62q38 0 38 41v918q0 44 39 44h68q35 0 35 -43v-944z" />
    <glyph glyph-name="K" unicode="K" horiz-adv-x="797" 
d="M790 36q8 -8 8 -18q0 -18 -22 -18h-112q-28 0 -43 8q-8 5 -32 29l-318 320q-11 11 -23 11q-18 0 -18 -28v-302q0 -38 -42 -38h-60q-17 0 -28.5 12.5t-11.5 26.5v822q0 44 39 44h68q35 0 35 -43v-240q0 -20 15 -20q10 0 21 11l255 255q24 24 32 29q15 8 43 8h110
q22 0 22 -18q0 -10 -8 -18l-352 -352q-16 -16 -16 -30t14 -28z" />
    <glyph glyph-name="L" unicode="L" horiz-adv-x="660" 
d="M651 40q0 -17 -12.5 -28.5t-26.5 -11.5h-475q-42 0 -42 42v820q0 43 35 43h68q39 0 39 -44v-678q0 -41 38 -41h338q38 0 38 -42v-60z" />
    <glyph glyph-name="M" unicode="M" horiz-adv-x="1015" 
d="M934 38q0 -38 -42 -38h-60q-17 0 -28.5 12.5t-11.5 26.5v485q0 11 -8 12t-12 -8l-172 -355q-20 -41 -62 -41h-23q-42 0 -62 41l-172 355q-4 9 -12 8t-8 -12v-485q0 -14 -11.5 -26.5t-28.5 -12.5h-60q-42 0 -42 38v825q0 42 37 42h58q45 0 67 -46l225 -464q10 -21 20 -21
q11 0 21 21l225 464q22 46 67 46h58q37 0 37 -42v-825z" />
    <glyph glyph-name="N" unicode="N" horiz-adv-x="858" 
d="M767 38q0 -38 -42 -38h-40q-33 0 -60 39l-360 514q-9 12 -19 12q-16 0 -16 -25v-502q0 -38 -42 -38h-60q-17 0 -28.5 12.5t-11.5 26.5v822q0 44 39 44h46q27 0 57 -43l359 -507q12 -17 23 -17q13 0 13 27v496q0 44 39 44h68q35 0 35 -43v-824z" />
    <glyph glyph-name="O" unicode="O" horiz-adv-x="856" 
d="M785 337q0 -145 -103 -248t-248 -103t-248 103t-103 248v237q0 145 103 248t248 103t248 -103t103 -248v-237zM645 337v237q0 87 -62 149t-149 62t-149 -62t-62 -149v-237q0 -87 62 -149t149 -62t149 62t62 149z" />
    <glyph glyph-name="P" unicode="P" horiz-adv-x="657" 
d="M644 563q0 -117 -84.5 -200t-202.5 -83q-37 0 -79 12q-6 2 -12 2q-22 0 -22 -29v-221q0 -44 -39 -44h-68q-35 0 -35 43v823q0 39 42 39h222q115 0 196.5 -76t81.5 -190v-76zM502 562v76q0 59 -41.5 97t-100.5 38h-78q-38 0 -38 -36v-218q0 -55 40 -84q33 -23 79 -23
q59 0 99 44.5t40 105.5z" />
    <glyph glyph-name="Q" unicode="Q" horiz-adv-x="866" 
d="M806 55q11 -11 11 -25q0 -17 -14 -31l-42 -43q-11 -11 -27 -11q-18 0 -29 11l-59 59q-24 24 -55 8q-72 -37 -157 -37q-145 0 -248 103t-103 248v237q0 145 103 248t248 103t248 -103t103 -248v-237q0 -90 -43 -169q-8 -15 -8 -26q0 -15 14 -29zM645 337v237q0 87 -62 149
t-149 62t-149 -62t-62 -149v-237q0 -87 62 -149t149 -62q25 0 47 5q18 4 18 23q0 9 -8 16l-26 25q-17 16 -17 31q0 14 14 28l48 48q11 11 23 11q15 0 32 -17l34 -35q7 -7 14 -7q16 0 21 16q11 32 11 67z" />
    <glyph glyph-name="R" unicode="R" horiz-adv-x="727" 
d="M644 618q0 -116 -83 -198q-12 -12 -12 -24q0 -11 11 -23q72 -81 72 -188v-147q0 -38 -42 -38h-60q-17 0 -28.5 12.5t-11.5 26.5v145q0 61 -32.5 106t-75.5 45h-104q-34 0 -34 -39v-252q0 -44 -39 -44h-68q-35 0 -35 43v823q0 39 42 39h222q115 0 196.5 -76t81.5 -190v-21
zM502 617v21q0 59 -41.5 97t-100.5 38h-78q-38 0 -38 -36v-233q0 -37 38 -37h81q59 0 99 44.5t40 105.5z" />
    <glyph glyph-name="S" unicode="S" horiz-adv-x="624" 
d="M591 261q-4 -120 -92.5 -203t-209.5 -78q-150 6 -231 129q-17 26 3 41l82 59q8 6 16 6q15 0 28 -19q41 -59 107 -62q56 -2 99 37.5t44 95.5q1 55 -39.5 99t-92.5 46q-106 5 -178 81.5t-68 181.5q5 106 81.5 178t181.5 69q115 -4 187 -89q15 -18 -2 -31l-85 -66
q-17 -13 -28 0q-29 36 -77 38q-44 1 -76.5 -29.5t-33.5 -75.5q-1 -43 30 -74t73 -33q120 -4 202.5 -92.5t78.5 -208.5z" />
    <glyph glyph-name="T" unicode="T" horiz-adv-x="735" 
d="M733 805q0 -42 -38 -42h-217q-38 0 -38 -41v-679q0 -43 -35 -43h-68q-39 0 -39 44v678q0 41 -38 41h-217q-38 0 -38 42v60q0 17 12.5 28.5t26.5 11.5h650q14 0 26.5 -11.5t12.5 -28.5v-60z" />
    <glyph glyph-name="U" unicode="U" horiz-adv-x="806" 
d="M720 276q0 -118 -94.5 -206t-220.5 -87q-124 1 -217 88.5t-93 203.5v586q0 44 39 44h68q35 0 35 -43v-582q0 -62 52 -112t120 -49q66 1 117.5 51t51.5 109v582q0 44 39 44h68q35 0 35 -43v-586z" />
    <glyph glyph-name="V" unicode="V" horiz-adv-x="847" 
d="M839 859l-337 -818q-17 -41 -56 -41h-51q-40 0 -57 41l-337 818q-4 11 -4 20q0 26 36 26h72q45 0 61 -40l229 -572q9 -23 25 -23q17 0 27 24l227 571q16 40 61 40h72q36 0 36 -26q0 -9 -4 -20z" />
    <glyph glyph-name="W" unicode="W" horiz-adv-x="1290" 
d="M1287 859l-337 -818q-17 -41 -56 -41h-51q-40 0 -57 41l-126 297q-6 14 -16 14t-16 -14l-126 -297q-17 -41 -56 -41h-51q-40 0 -57 41l-337 818q-4 11 -4 20q0 26 36 26h72q45 0 61 -40l229 -572q9 -23 25 -23q17 0 27 24l100 236q16 38 -5 88l-103 241q-5 11 -5 20
q0 26 37 26h72q44 0 61 -40l26 -61q5 -13 14 -13t14 13l26 61q17 40 61 40h72q37 0 37 -26q0 -9 -5 -20l-107 -253q-16 -39 0 -77l101 -236q10 -23 26 -23t26 24l227 571q16 40 61 40h72q36 0 36 -26q0 -9 -4 -20z" />
    <glyph glyph-name="X" unicode="X" horiz-adv-x="747" 
d="M732 46q8 -13 8 -24q0 -22 -28 -22h-113q-18 0 -42 40l-155 262q-11 18 -25 18t-27 -20l-161 -260q-16 -27 -21 -31q-8 -9 -24 -9h-108q-29 0 -29 24q0 10 7 22l254 414q18 29 -1 61l-203 338q-8 13 -8 24q0 22 28 22h113q18 0 42 -40l111 -185q13 -21 28 -21q14 0 27 21
l112 185q24 40 45 40h108q29 0 29 -24q0 -10 -7 -22l-202 -328q-13 -22 -13 -43q0 -19 11 -38z" />
    <glyph glyph-name="Y" unicode="Y" horiz-adv-x="685" 
d="M682 859l-257 -490q-12 -23 -12 -49v-282q0 -38 -42 -38h-60q-17 0 -28.5 12.5t-11.5 26.5v283q0 28 -10 47l-257 490q-5 9 -5 17q0 29 37 29h72q41 0 61 -40l149 -291q11 -22 26 -22q14 0 26 23l147 290q20 40 61 40h72q37 0 37 -29q0 -8 -5 -17z" />
    <glyph glyph-name="Z" unicode="Z" horiz-adv-x="808" 
d="M771 40q0 -17 -12.5 -28.5t-26.5 -11.5h-669q-24 0 -24 25q0 14 8 27l423 675q8 13 8 21q0 15 -33 15h-343q-44 0 -44 39v68q0 35 43 35h626q29 0 29 -29q0 -6 -3 -11l-436 -688q-10 -15 -10 -23q0 -12 23 -12h403q38 0 38 -42v-60z" />
    <glyph glyph-name="bracketleft" unicode="[" horiz-adv-x="388" 
d="M386 -200q0 -17 -12.5 -28.5t-26.5 -11.5h-200q-41 0 -41 56v978q0 56 41 56h200q14 0 26.5 -11.5t12.5 -28.5v-60q0 -42 -38 -42h-62q-38 0 -38 -41v-724q0 -41 38 -41h62q38 0 38 -42v-60z" />
    <glyph glyph-name="backslash" unicode="\" horiz-adv-x="750" 
d="M742 68q8 -12 6 -28q-3 -17 -16 -27l-49 -35q-13 -9 -27 -9q-19 0 -30 16l-608 869q-12 17 -12 30q0 15 16 26l56 39q13 9 24 9q17 0 33 -23z" />
    <glyph glyph-name="bracketright" unicode="]" horiz-adv-x="388" 
d="M278 -184q0 -56 -41 -56h-200q-14 0 -26.5 11.5t-12.5 28.5v60q0 42 38 42h62q38 0 38 41v724q0 41 -38 41h-62q-38 0 -38 42v60q0 17 12.5 28.5t26.5 11.5h200q41 0 41 -56v-978z" />
    <glyph glyph-name="asciicircum" unicode="^" horiz-adv-x="657" 
d="M634 310l-48 -48q-14 -14 -27 -14q-14 0 -31 17l-174 173q-13 12 -31 12q-15 0 -25 -10l-172 -172q-11 -11 -25 -11q-17 0 -31 14l-42 42q-12 12 -12 29t10 27l269 269q13 13 31 13q17 0 30 -13l272 -273q17 -17 17 -32q0 -12 -11 -23z" />
    <glyph glyph-name="underscore" unicode="_" horiz-adv-x="498" 
d="M498 -160h-498v40h498v-40z" />
    <glyph glyph-name="grave" unicode="`" 
d="M258 800l-25 -25q-15 -15 -32 -15q-14 0 -28 12l-118 104q-11 10 -11 26q0 17 11 28l39 40q14 15 35 15q19 0 30 -13l98 -112q14 -13 14 -31q0 -16 -13 -29z" />
    <glyph glyph-name="a" unicode="a" horiz-adv-x="642" 
d="M545 38q0 -38 -42 -38h-227q-86 0 -147 61t-61 147q0 83 68 147q65 61 140 61h101q27 0 24 26q-8 73 -72 97q-38 13 -128 13q-34 0 -34 31v60q0 42 38 42q196 0 273 -68q67 -59 67 -194v-385zM403 146v122q0 24 -25 24h-86q-35 0 -59 -24.5t-24 -58.5q0 -35 24.5 -60
t58.5 -25h87q24 0 24 22z" />
    <glyph glyph-name="b" unicode="b" horiz-adv-x="724" 
d="M638 265q0 -116 -81.5 -199t-196.5 -83q-58 0 -222 17q-42 3 -42 38v824q0 43 35 43h68q39 0 39 -44v-162q0 -29 22 -29q6 0 12 2q42 12 79 12q118 0 202.5 -83t84.5 -200v-136zM496 266v136q0 61 -40 105.5t-99 44.5q-46 0 -79 -23q-40 -29 -40 -84v-278q0 -43 38 -46
q45 -6 78 -6q60 0 101 44.5t41 106.5z" />
    <glyph glyph-name="c" unicode="c" horiz-adv-x="676" 
d="M612 122q-38 -63 -103.5 -101t-142.5 -38q-115 0 -196.5 83t-81.5 199v136q0 117 84.5 200t202.5 83q132 0 215 -104q21 -26 -4 -44l-66 -48q-22 -16 -41 9q-41 55 -110 55q-59 0 -99 -44.5t-40 -105.5v-136q0 -62 41 -106.5t101 -44.5q81 0 119 69q17 30 45 13l66 -40
q23 -14 10 -35z" />
    <glyph glyph-name="d" unicode="d" horiz-adv-x="747" 
d="M640 38q0 -35 -42 -38q-164 -17 -222 -17q-115 0 -196.5 83t-81.5 199v136q0 117 84.5 200t202.5 83q37 0 79 -12q6 -2 12 -2q22 0 22 29v162q0 44 39 44h68q35 0 35 -43v-824zM498 167v278q0 55 -40 84q-33 23 -79 23q-59 0 -99 -44.5t-40 -105.5v-136q0 -62 41 -106.5
t101 -44.5q32 0 78 6q38 3 38 46z" />
    <glyph glyph-name="e" unicode="e" horiz-adv-x="736" 
d="M664 389q0 -36 -33 -45l-357 -94q-35 -9 -23 -40q36 -95 132 -95q81 0 119 69q17 30 45 13l66 -40q23 -14 10 -35q-38 -63 -103.5 -101t-142.5 -38q-115 0 -196.5 83t-81.5 199v136q0 117 84.5 200t202.5 83q115 0 196.5 -83t81.5 -199v-13zM498 485q-43 67 -118 67
q-54 0 -92.5 -38t-45.5 -93q-2 -15 6.5 -21.5t20.5 -3.5l216 57q29 8 13 32z" />
    <glyph glyph-name="f" unicode="f" horiz-adv-x="460" 
d="M435 576q0 -42 -38 -42h-80q-22 0 -22 -21v-469q0 -44 -39 -44h-68q-35 0 -35 43v470q0 21 -21 21h-46q-43 0 -43 35v68q0 39 44 39h42q24 0 24 23v48q0 69 42 113.5t117 44.5h82q14 0 26.5 -11.5t12.5 -28.5v-60q0 -42 -38 -42h-62q-38 0 -38 -41v-23q0 -23 23 -23h78
q14 0 26.5 -11.5t12.5 -28.5v-60z" />
    <glyph glyph-name="g" unicode="g" horiz-adv-x="723" 
d="M721 -202q0 -38 -42 -38h-70q-32 0 -32 45v70q0 54 -40 89.5t-100 35.5h-364q-38 0 -38 42v60q0 17 12.5 28.5t26.5 11.5h74q36 0 50 36l26 68q2 6 2 14q0 29 -17 45q-68 64 -68 159q0 92 64.5 156.5t156.5 64.5q37 0 77 -14q31 -11 49 7l31 31q16 16 31 16q13 0 24 -11
l48 -48q14 -14 14 -27q0 -15 -17 -32l-32 -32q-21 -21 -11 -57q7 -25 7 -54q0 -79 -49 -138.5t-124 -76.5q-36 -8 -46 -35l-14 -39q-2 -6 -2 -11q0 -22 32 -22h56q123 0 204 -78t81 -194v-72zM446 464q0 35 -25 59.5t-59 24.5q-35 0 -59.5 -24.5t-24.5 -59.5t24.5 -59.5
t59.5 -24.5t59.5 24.5t24.5 59.5z" />
    <glyph glyph-name="h" unicode="h" horiz-adv-x="751" 
d="M654 38q0 -38 -42 -38h-60q-17 0 -28.5 12.5t-11.5 26.5v362q0 62 -41 106.5t-101 44.5q-59 0 -99 -44.5t-40 -105.5v-364q0 -38 -42 -38h-60q-17 0 -28.5 12.5t-11.5 26.5v822q0 44 39 44h68q35 0 35 -43v-181q0 -25 16 -25q5 0 12 3q58 25 117 25q115 0 196.5 -83
t81.5 -199v-364z" />
    <glyph glyph-name="i" unicode="i" 
d="M230 798q0 -43 -42 -43h-56q-44 0 -44 40v72q0 38 38 38h56q19 0 33.5 -13t14.5 -31v-63zM230 38q0 -38 -42 -38h-60q-17 0 -28.5 12.5t-11.5 26.5v593q0 44 39 44h68q35 0 35 -43v-595z" />
    <glyph glyph-name="j" unicode="j" horiz-adv-x="331" 
d="M226 798q0 -43 -42 -43h-56q-44 0 -44 40v72q0 38 38 38h56q19 0 33.5 -13t14.5 -31v-63zM226 -82q0 -69 -41 -112q-43 -46 -118 -46h-82q-14 0 -26.5 11.5t-12.5 28.5v60q0 42 38 42h62q38 0 38 41v689q0 44 39 44h68q35 0 35 -43v-715z" />
    <glyph glyph-name="k" unicode="k" horiz-adv-x="681" 
d="M674 36q9 -8 9 -18q0 -18 -23 -18h-112q-28 0 -43 8q-9 5 -32 29l-202 204q-11 11 -23 11q-18 0 -18 -28v-186q0 -38 -42 -38h-60q-17 0 -28.5 12.5t-11.5 26.5v822q0 44 39 44h68q35 0 35 -43v-356q0 -20 15 -20q10 0 21 11l142 142q24 24 32 29q15 8 43 8h110
q22 0 22 -18q0 -10 -8 -18l-239 -239q-16 -16 -16 -30t14 -28z" />
    <glyph glyph-name="l" unicode="l" horiz-adv-x="331" 
d="M230 38q0 -38 -42 -38h-60q-17 0 -28.5 12.5t-11.5 26.5v822q0 44 39 44h68q35 0 35 -43v-824z" />
    <glyph glyph-name="m" unicode="m" horiz-adv-x="1187" 
d="M1087 38q0 -38 -42 -38h-60q-17 0 -28.5 12.5t-11.5 26.5v362q0 62 -41 106.5t-101 44.5q-59 0 -99 -44.5t-40 -105.5v-364q0 -38 -42 -38h-61q-17 0 -28.5 12.5t-11.5 26.5v362q0 62 -41 106.5t-101 44.5q-59 0 -99 -44.5t-40 -105.5v-364q0 -38 -42 -38h-60
q-17 0 -28.5 12.5t-11.5 26.5v362q0 117 84.5 200t202.5 83q107 0 185 -72q23 -21 47 0q84 72 192 72q115 0 196.5 -83t81.5 -199v-364z" />
    <glyph glyph-name="n" unicode="n" horiz-adv-x="751" 
d="M664 38q0 -38 -42 -38h-60q-17 0 -28.5 12.5t-11.5 26.5v362q0 62 -41 106.5t-101 44.5q-59 0 -99 -44.5t-40 -105.5v-364q0 -38 -42 -38h-60q-17 0 -28.5 12.5t-11.5 26.5v362q0 117 84.5 200t202.5 83q115 0 196.5 -83t81.5 -199v-364z" />
    <glyph glyph-name="o" unicode="o" horiz-adv-x="746" 
d="M664 266q0 -117 -84.5 -200t-202.5 -83q-115 0 -196.5 83t-81.5 199v136q0 117 84.5 200t202.5 83q115 0 196.5 -83t81.5 -199v-136zM522 265v136q0 62 -41 106.5t-101 44.5q-59 0 -99 -44.5t-40 -105.5v-136q0 -62 41 -106.5t101 -44.5q59 0 99 44.5t40 105.5z" />
    <glyph glyph-name="p" unicode="p" horiz-adv-x="736" 
d="M644 274q0 -117 -84.5 -200t-202.5 -83q-37 0 -79 12q-6 2 -12 2q-22 0 -22 -29v-172q0 -44 -39 -44h-68q-35 0 -35 43v834q0 39 42 39h222q115 0 196.5 -76t81.5 -190v-136zM502 273v136q0 59 -41.5 97t-100.5 38h-78q-38 0 -38 -36v-278q0 -55 40 -84q33 -23 79 -23
q59 0 99 44.5t40 105.5z" />
    <glyph glyph-name="q" unicode="q" horiz-adv-x="751" 
d="M641 -197q0 -43 -35 -43h-68q-39 0 -39 44v172q0 29 -22 29q-6 0 -12 -2q-42 -12 -79 -12q-118 0 -202.5 83t-84.5 200v136q0 116 81.5 199t196.5 83q58 0 222 -17q42 -3 42 -38v-834zM499 230v278q0 43 -38 46q-46 6 -78 6q-60 0 -101 -44.5t-41 -106.5v-136
q0 -61 40 -105.5t99 -44.5q46 0 79 23q40 29 40 84z" />
    <glyph glyph-name="r" unicode="r" horiz-adv-x="436" 
d="M425 584q0 -32 -45 -32q-61 0 -100 -41.5t-39 -108.5v-364q0 -38 -42 -38h-60q-17 0 -28.5 12.5t-11.5 26.5v362q0 133 78.5 209t209.5 76q38 0 38 -42v-60z" />
    <glyph glyph-name="s" unicode="s" horiz-adv-x="564" 
d="M490 199q-3 -93 -71.5 -156.5t-161.5 -60.5q-117 4 -173 92q-17 26 7 43l65 45q28 19 46 -5q22 -29 60 -31q33 -1 58 22t26 56t-23 59t-55 27q-83 3 -139 63.5t-53 142.5q3 83 63.5 139t142.5 54q42 -1 84 -22q38 -20 57 -44q16 -21 -7 -42l-52 -48q-12 -11 -25 -11
t-27 13t-35 14q-25 1 -42.5 -16t-18.5 -42q-1 -24 16.5 -41t40.5 -18q93 -3 156.5 -71.5t60.5 -161.5z" />
    <glyph glyph-name="t" unicode="t" horiz-adv-x="508" 
d="M467 574q0 -17 -12.5 -28.5t-26.5 -11.5h-120q-23 0 -23 -23v-328q0 -41 38 -41h104q38 0 38 -42v-60q0 -17 -12.5 -28.5t-26.5 -11.5h-124q-75 0 -118 46q-41 43 -41 112v353q0 23 -24 23h-42q-44 0 -44 39v68q0 35 43 35h46q21 0 21 21v165q0 43 35 43h68q39 0 39 -44
v-164q0 -21 22 -21h122q38 0 38 -42v-60z" />
    <glyph glyph-name="u" unicode="u" horiz-adv-x="764" 
d="M664 275q0 -117 -84.5 -200t-202.5 -83q-115 0 -196.5 83t-81.5 199v364q0 38 42 38h60q17 0 28.5 -12.5t11.5 -26.5v-362q0 -61 41 -103t101 -42t99.5 41.5t39.5 102.5v364q0 38 42 38h60q17 0 28.5 -12.5t11.5 -26.5v-362z" />
    <glyph glyph-name="v" unicode="v" horiz-adv-x="697" 
d="M682 630l-257 -589q-18 -41 -56 -41h-51q-17 0 -36 16q-16 13 -21 25l-257 589q-6 14 -6 25q0 21 26 21h93q25 0 42 -40l159 -372q10 -23 25 -23q17 0 27 24l157 371q17 40 45 40h88q28 0 28 -23q0 -10 -6 -23z" />
    <glyph glyph-name="w" unicode="w" horiz-adv-x="1156" 
d="M1153 630l-257 -589q-18 -41 -56 -41h-51q-17 0 -34.5 14t-22.5 27l-136 339q-5 13 -18 13q-11 0 -16 -11l-137 -341q-5 -13 -22 -27t-34 -14h-51q-17 0 -36 16q-16 13 -21 25l-257 589q-7 16 -7 26q0 20 25 20h90q30 0 47 -40l159 -372q10 -23 26 -23q17 0 26 24
l130 339q28 72 82 72q48 0 75 -71l132 -341q9 -24 25 -24q17 0 27 25l157 371q17 40 45 40h90q26 0 26 -21q0 -11 -6 -25z" />
    <glyph glyph-name="x" unicode="x" horiz-adv-x="712" 
d="M692 46q9 -12 9 -23q0 -23 -29 -23h-103q-24 0 -52 40l-135 192q-12 17 -27 17t-27 -17l-139 -192q-29 -40 -59 -40h-94q-30 0 -30 24q0 11 8 22l230 302q14 18 14 35q0 15 -12 31l-162 216q-9 12 -9 23q0 23 29 23h101q25 0 54 -40l75 -102q11 -15 23 -15q14 0 26 17
l74 100q30 40 55 40h98q31 0 31 -24q0 -11 -9 -22l-160 -212q-12 -17 -12 -36q0 -20 14 -40z" />
    <glyph glyph-name="y" unicode="y" horiz-adv-x="677" 
d="M675 630l-278 -712q-32 -81 -55 -110q-39 -48 -108 -48h-82q-14 0 -26.5 11.5t-12.5 28.5v60q0 42 38 42h62q20 0 38 41l24 54q12 28 -3 63l-248 570q-6 13 -6 23q0 23 28 23h92q24 0 41 -40l159 -372q8 -19 18 -19q12 0 21 23l143 368q16 40 45 40h88q27 0 27 -23
q0 -10 -5 -23z" />
    <glyph glyph-name="z" unicode="z" horiz-adv-x="717" 
d="M650 40q0 -17 -12.5 -28.5t-26.5 -11.5h-557q-34 0 -34 32q0 13 8 25l308 437q3 5 3 12q0 28 -23 28h-220q-44 0 -44 39v68q0 35 43 35h496q34 0 34 -29q0 -13 -8 -25l-313 -442q-5 -7 -5 -16q0 -22 25 -22h288q38 0 38 -42v-60z" />
    <glyph glyph-name="braceleft" unicode="{" horiz-adv-x="450" 
d="M454 -169q0 -39 -38 -44q-126 0 -220.5 87.5t-94.5 205.5v152q0 69 -64 69q-23 0 -23 32t22 32q65 0 65 56v126q0 117 92 209.5t216 92.5q14 0 26 -11.5t12 -28.5v-60q0 -42 -38 -42q-72 0 -121 -55q-45 -51 -45 -116v-112q0 -50 -31 -71q-9 -7 -9 -20t9 -20
q31 -24 31 -77v-147q0 -65 40 -108q47 -50 132 -50q39 0 39 -40v-60z" />
    <glyph glyph-name="bar" unicode="|" horiz-adv-x="372" 
d="M255 -70q0 -38 -43 -38h-60q-17 0 -28.5 12.5t-11.5 26.5v1059q0 44 38 44h69q35 0 35 -43z" />
    <glyph glyph-name="braceright" unicode="}" horiz-adv-x="450" 
d="M434 333q0 -32 -23 -32q-64 0 -64 -69v-152q0 -118 -94.5 -205.5t-220.5 -87.5q-38 5 -38 44v60q0 40 39 40q85 0 132 50q40 43 40 108v147q0 53 31 77q9 7 9 20t-9 20q-31 21 -31 71v112q0 65 -45 116q-49 55 -121 55q-38 0 -38 42v60q0 17 12 28.5t26 11.5
q124 0 216 -92.5t92 -209.5v-126q0 -56 65 -56q22 0 22 -32z" />
    <glyph glyph-name="asciitilde" unicode="~" horiz-adv-x="828" 
d="M796 353q-81 -116 -238 -116q-84 0 -142 27q-40 25 -80 51q-43 27 -93 27q-52 0 -105 -59q-13 -10 -24 -10t-36 20l-43 35q-13 10 -13 23q0 16 20 39q87 102 207 102q77 0 133 -26q5 -3 80 -50q42 -26 84 -26q78 0 134 72q8 9 20 9q20 0 37 -18l45 -48q20 -22 20 -35
q0 -8 -6 -17z" />
    <glyph glyph-name="uni00A0" unicode="&#xa0;" horiz-adv-x="177" 
 />
    <glyph glyph-name="exclamdown" unicode="&#xa1;" 
d="M228 606q0 -40 -44 -40h-56q-42 0 -42 43v63q0 18 14.5 31t33.5 13h56q38 0 38 -38v-72zM228 -200q0 -14 -11.5 -26.5t-28.5 -12.5h-60q-42 0 -42 38v645q0 43 35 43h68q39 0 39 -44v-643z" />
    <glyph glyph-name="cent" unicode="&#xa2;" horiz-adv-x="676" 
d="M612 251q-63 -104 -182 -132q-41 -9 -46 -41l-8 -47q-6 -38 -48 -30l-59 11q-39 7 -33 45l6 37q7 41 -26 62q-128 81 -128 238v34q0 99 62.5 176t157.5 99q27 6 36.5 13.5t13.5 31.5l10 57q7 37 35 37q5 0 11 -1l67 -12q35 -6 27 -48l-10 -53q-8 -40 25 -61
q39 -25 67 -60q21 -26 -4 -44l-66 -48q-23 -16 -41 9q-14 19 -19 -12l-40 -230q-2 -14 8 -19q9 -4 18 2q27 17 44.5 47.5t45.5 13.5l66 -40q23 -14 10 -35zM322 534q3 18 -8 24q-9 5 -18 -1q-66 -44 -66 -128v-34q0 -46 24 -84q4 -7 13 -7q16 0 19 20z" />
    <glyph glyph-name="sterling" unicode="&#xa3;" horiz-adv-x="657" 
d="M635 747l-3 -40q-1 -14 -13.5 -26.5t-29.5 -12.5h-60q-41 0 -39 38l1 20q2 37 -44 37h-98q-37 0 -41 -41l-2 -23q-2 -23 22 -23h36q14 0 25.5 -11.5t10.5 -28.5l-4 -60q-3 -42 -41 -42h-38q-23 0 -24 -21l-23 -330q-1 -15 8.5 -28t26.5 -13h275q38 0 35 -42l-4 -60
q-1 -17 -14.5 -28.5t-27.5 -11.5h-412q-42 0 -39 42l33 471q1 21 -19 21h-46q-44 0 -41 35l5 68q3 39 47 39h42q23 0 25 23l4 48q6 69 50.5 113.5t119.5 44.5l150 1q69 0 109 -41q44 -43 38 -118z" />
    <glyph glyph-name="currency" unicode="&#xa4;" horiz-adv-x="840" 
d="M750 119q16 -13 -1 -30q-103 -103 -249 -103q-106 0 -193 58t-128 151q-10 22 -31 22h-58q-32 0 -32 19q0 8 5 20l9 22q14 35 58 35q19 0 19 24q0 25 -39 25q-30 0 -30 25q0 6 3 14l9 22q14 35 58 35q19 0 29 22q42 93 128.5 150.5t192.5 57.5q133 0 229 -84
q15 -13 1 -28l-68 -73q-14 -15 -30 -2q-57 47 -132 47q-90 0 -157 -71q-18 -19 13 -19h267q22 0 22 -18q0 -11 -8 -24l-8 -14q-23 -40 -61 -40h-254q-25 0 -25 -25q0 -24 25 -24h201q22 0 22 -19q0 -10 -8 -23l-8 -14q-23 -40 -62 -40h-108q-16 0 -16 -6q0 -4 6 -12
q63 -73 159 -73q77 0 139 54q16 14 32 1z" />
    <glyph glyph-name="yen" unicode="&#xa5;" horiz-adv-x="682" 
d="M682 859l-206 -391q-4 -8 -4 -16q0 -25 32 -25h131q38 0 38 -42v-60q0 -17 -12.5 -28.5t-26.5 -11.5h-180q-17 0 -29 -13.5t-12 -31.5v-202q0 -38 -42 -38h-60q-17 0 -28.5 12.5t-11.5 26.5v203q0 43 -41 43h-181q-44 0 -44 39v68q0 35 43 35h144q23 0 23 20q0 8 -5 17
l-206 395q-5 9 -5 17q0 29 37 29h72q41 0 61 -40l149 -291q11 -22 26 -22q14 0 26 23l147 290q20 40 61 40h72q37 0 37 -29q0 -8 -5 -17z" />
    <glyph glyph-name="brokenbar" unicode="&#xa6;" 
d="M230 540q0 -43 -42 -43h-56q-44 0 -44 40v330q0 38 38 38h56q19 0 33.5 -13t14.5 -31v-321zM230 38q0 -38 -42 -38h-60q-17 0 -28.5 12.5t-11.5 26.5v335q0 44 39 44h68q35 0 35 -43v-337z" />
    <glyph glyph-name="section" unicode="&#xa7;" horiz-adv-x="564" 
d="M490 226q-3 -78 -52 -136q-17 -19 -2 -50q22 -46 20 -94q-3 -82 -63 -138.5t-143 -54.5q-42 1 -84 22q-38 20 -57 44q-16 21 7 42l52 48q12 11 25 11t27 -13t35 -14q25 -1 42.5 16t18.5 42q2 58 -59 58q-4 0 -28 4q-82 14 -136 79.5t-51 150.5q3 79 51 135q12 14 12 23
q0 10 -8 24q-23 43 -21 98q3 83 63.5 139t142.5 54q42 -1 84 -22q38 -20 57 -44q16 -21 -7 -42l-52 -48q-12 -11 -25 -11t-27 13t-35 14q-25 1 -42.5 -16t-18.5 -42q-2 -49 48 -58q25 0 40 -4q82 -14 135.5 -80t50.5 -150zM353 238q0 36 -26 62.5t-63 26.5t-63 -26.5
t-26 -62.5q0 -37 26 -63t63 -26q38 0 63.5 25.5t25.5 63.5z" />
    <glyph glyph-name="dieresis" unicode="&#xa8;" horiz-adv-x="647" 
d="M525 882q0 -36 -25.5 -61.5t-61.5 -25.5t-61.5 25.5t-25.5 61.5t25.5 61.5t61.5 25.5t61.5 -25.5t25.5 -61.5zM312 882q0 -36 -25.5 -61.5t-61.5 -25.5t-61.5 25.5t-25.5 61.5t25.5 61.5t61.5 25.5t61.5 -25.5t25.5 -61.5z" />
    <glyph glyph-name="copyright" unicode="&#xa9;" horiz-adv-x="840" 
d="M773 337q0 -145 -103 -248t-248 -103t-248 102.5t-103 248.5q0 145 103 248t248 103t248 -103t103 -248zM608 125q13 15 -6 33l-37 34q-22 17 -40 -3q-35 -38 -86 -38q-48 0 -82.5 34t-34.5 82v143q0 48 34.5 82t82.5 34q43 0 72 -25q12 -11 22 -11t21 14l31 38
q16 19 -4 36q-61 52 -142 52q-91 0 -156 -65t-65 -155v-143q0 -90 65 -155t156 -65q102 0 169 78z" />
    <glyph glyph-name="ordfeminine" unicode="&#xaa;" horiz-adv-x="508" 
d="M397 280q0 -33 -35 -33h-137q-55 0 -94.5 40t-39.5 95q0 53 43 94t91 41h48q20 0 15 16q-7 29 -36 38q-21 7 -72 7q-30 0 -30 29v36q0 35 33 35q124 0 172 -43q42 -38 42 -124v-231zM292 353v57q0 12 -14 12h-53q-39 0 -39 -39q0 -41 39 -41h52q15 0 15 11z" />
    <glyph glyph-name="guillemotleft" unicode="&#xab;" horiz-adv-x="960" 
d="M889 53l-48 -48q-11 -11 -23 -11q-15 0 -32 17l-313 312q-13 13 -13 30q0 18 13 31l309 309q10 10 27 10t29 -12l42 -42q14 -14 14 -31q0 -14 -11 -25l-212 -212q-10 -10 -10 -25q0 -19 12 -31l213 -214q17 -17 17 -31q0 -13 -14 -27zM469 53l-48 -48q-11 -11 -23 -11
q-15 0 -32 17l-313 312q-13 13 -13 30q0 18 13 31l309 309q10 10 27 10t29 -12l42 -42q14 -14 14 -31q0 -14 -11 -25l-212 -212q-10 -10 -10 -25q0 -19 12 -31l213 -214q17 -17 17 -31q0 -13 -14 -27z" />
    <glyph glyph-name="logicalnot" unicode="&#xac;" horiz-adv-x="723" 
d="M660 460l-1 -310q0 -43 -35 -43h-68q-39 0 -39 43v170q0 41 -38 41h-378q-38 0 -38 42v59q0 17 12 29t26 12h515q44 0 44 -43z" />
    <glyph glyph-name="uni00AD" unicode="&#xad;" horiz-adv-x="564" 
d="M489 325q0 -17 -12.5 -28.5t-26.5 -11.5h-329q-44 0 -44 39v68q0 35 43 35h331q38 0 38 -42v-60z" />
    <glyph glyph-name="uni00AD" unicode="&#x2212;" horiz-adv-x="564" 
d="M489 325q0 -17 -12.5 -28.5t-26.5 -11.5h-329q-44 0 -44 39v68q0 35 43 35h331q38 0 38 -42v-60z" />
    <glyph glyph-name="uni00AD" unicode="&#x2212;" horiz-adv-x="564" 
d="M489 325q0 -17 -12.5 -28.5t-26.5 -11.5h-329q-44 0 -44 39v68q0 35 43 35h331q38 0 38 -42v-60z" />
    <glyph glyph-name="registered" unicode="&#xae;" horiz-adv-x="840" 
d="M773 337q0 -145 -103 -248t-248 -103t-248 102.5t-103 248.5q0 145 103 248t248 103t248 -103t103 -248zM607 441v12q0 73 -51.5 121.5t-125.5 48.5h-133q-35 0 -35 -33v-494q0 -36 31 -36h41q33 0 33 36v152q0 13 10 13h63q22 0 38.5 -24.5t16.5 -56.5v-87q0 -33 34 -33
h36q35 0 35 33v88q0 68 -46 120q-6 7 0 14q53 53 53 126zM502 440q0 -32 -21.5 -56t-52.5 -24h-48q-13 0 -13 12v140q0 12 13 12h47q31 0 53 -20t22 -51v-13z" />
    <glyph glyph-name="macron" unicode="&#xaf;" horiz-adv-x="595" 
d="M514 814q0 -17 -12.5 -28.5t-26.5 -11.5h-354q-44 0 -44 39v58q0 35 43 35h356q38 0 38 -42v-50z" />
    <glyph glyph-name="macron" unicode="&#x2c9;" horiz-adv-x="595" 
d="M514 814q0 -17 -12.5 -28.5t-26.5 -11.5h-354q-44 0 -44 39v58q0 35 43 35h356q38 0 38 -42v-50z" />
    <glyph glyph-name="macron" unicode="&#x2c9;" horiz-adv-x="595" 
d="M514 814q0 -17 -12.5 -28.5t-26.5 -11.5h-354q-44 0 -44 39v58q0 35 43 35h356q38 0 38 -42v-50z" />
    <glyph glyph-name="degree" unicode="&#xb0;" horiz-adv-x="474" 
d="M380 811q0 -58 -41 -98.5t-99 -40.5t-99 40.5t-41 98.5t41 99t99 41t99 -41t41 -99zM296 812q0 22 -16.5 39t-39.5 17q-22 0 -39 -17t-17 -39q0 -24 16.5 -40.5t39.5 -16.5t39.5 16.5t16.5 40.5z" />
    <glyph glyph-name="plusminus" unicode="&#xb1;" horiz-adv-x="690" 
d="M619 37q0 -17 -12.5 -28.5t-26.5 -11.5h-459q-44 0 -44 39v68q0 35 43 35h108q19 0 34.5 10.5t15.5 25.5v121q0 37 -39 37h-118q-44 0 -44 39v68q0 35 43 35h120q38 0 38 36v125q0 38 42 38h60q17 0 28.5 -12.5t11.5 -26.5v-121q0 -39 42 -39h119q38 0 38 -42v-60
q0 -17 -12.5 -28.5t-26.5 -11.5h-118q-42 0 -42 -39v-118q0 -37 48 -37h113q38 0 38 -42v-60z" />
    <glyph glyph-name="uni00B2" unicode="&#xb2;" horiz-adv-x="641" 
d="M505 274q0 -34 -33 -34h-293q-32 0 -32 28q0 12 9 22l142 170q22 26 22 56q0 37 -30 58q-31 22 -83 0q-7 -3 -13 -3q-16 0 -23 19l-17 46q-6 25 19 35q37 15 86 15q66 0 103 -26q68 -47 68 -137q0 -70 -49 -126l-27 -31q-7 -8 -7 -13q0 -8 18 -8h108q32 0 32 -35v-36z
" />
    <glyph glyph-name="uni00B3" unicode="&#xb3;" horiz-adv-x="658" 
d="M436 244q0 -74 -53 -128t-127 -54h-78q-34 0 -34 34v36q0 35 33 35h70q32 0 56 21.5t24 52.5q0 32 -24 53.5t-57 21.5h-68q-34 0 -34 34v37q0 35 33 35h70q32 0 56 21t24 52q0 32 -24 53.5t-57 21.5h-68q-34 0 -34 34v36q0 36 33 36h80q73 0 126 -52t53 -125
q0 -67 -42 -113q-11 -16 2 -30q40 -43 40 -112z" />
    <glyph glyph-name="acute" unicode="&#xb4;" 
d="M261 876l-118 -104q-14 -12 -28 -12q-17 0 -32 15l-25 25q-13 13 -13 29q0 18 14 31l98 112q11 13 30 13q21 0 35 -15l39 -40q11 -11 11 -28q0 -16 -11 -26z" />
    <glyph glyph-name="uni00B5" unicode="&#xb5;" horiz-adv-x="764" 
d="M664 275q0 -117 -84.5 -200t-202.5 -83q-50 0 -94 16q-16 6 -22 6q-20 0 -20 -30v-66q0 -69 -41 -112q-43 -46 -118 -46h-82q-14 0 -26.5 11.5t-12.5 28.5v60q0 42 38 42h62q38 0 38 41v689q0 44 39 44h68q35 0 35 -43v-358q0 -61 41 -103t101 -42t99.5 41.5t39.5 102.5
v364q0 38 42 38h60q17 0 28.5 -12.5t11.5 -26.5v-362z" />
    <glyph glyph-name="uni00B5" unicode="&#x3bc;" horiz-adv-x="764" 
d="M664 275q0 -117 -84.5 -200t-202.5 -83q-50 0 -94 16q-16 6 -22 6q-20 0 -20 -30v-66q0 -69 -41 -112q-43 -46 -118 -46h-82q-14 0 -26.5 11.5t-12.5 28.5v60q0 42 38 42h62q38 0 38 41v689q0 44 39 44h68q35 0 35 -43v-358q0 -61 41 -103t101 -42t99.5 41.5t39.5 102.5
v364q0 38 42 38h60q17 0 28.5 -12.5t11.5 -26.5v-362z" />
    <glyph glyph-name="uni00B5" unicode="&#x3bc;" horiz-adv-x="764" 
d="M664 275q0 -117 -84.5 -200t-202.5 -83q-50 0 -94 16q-16 6 -22 6q-20 0 -20 -30v-66q0 -69 -41 -112q-43 -46 -118 -46h-82q-14 0 -26.5 11.5t-12.5 28.5v60q0 42 38 42h62q38 0 38 41v689q0 44 39 44h68q35 0 35 -43v-358q0 -61 41 -103t101 -42t99.5 41.5t39.5 102.5
v364q0 38 42 38h60q17 0 28.5 -12.5t11.5 -26.5v-362z" />
    <glyph glyph-name="paragraph" unicode="&#xb6;" horiz-adv-x="730" 
d="M649 43q0 -43 -35 -43h-68q-39 0 -39 44v221q0 29 -22 29q-6 0 -12 -2q-49 -14 -49 -48v-206q0 -38 -42 -38h-60q-17 0 -28.5 12.5t-11.5 26.5v199q0 41 -43 54q-89 27 -146.5 101.5t-57.5 169.5v76q0 114 81.5 190t196.5 76h294q42 0 42 -39v-823zM507 519v218
q0 33 -38 36q-45 3 -45 -43v-270q0 -18 12 -28t29 -2q42 20 42 89zM282 456v270q0 36 -15 36q-7 0 -18 -6q-72 -40 -72 -118v-76q0 -84 66 -128q7 -5 16 -5q23 0 23 27z" />
    <glyph glyph-name="periodcentered" unicode="&#xb7;" 
d="M230 338q0 -18 -14.5 -31t-33.5 -13h-56q-38 0 -38 38v72q0 40 44 40h56q42 0 42 -43v-63z" />
    <glyph glyph-name="periodcentered" unicode="&#x2219;" 
d="M230 338q0 -18 -14.5 -31t-33.5 -13h-56q-38 0 -38 38v72q0 40 44 40h56q42 0 42 -43v-63z" />
    <glyph glyph-name="periodcentered" unicode="&#x2219;" 
d="M230 338q0 -18 -14.5 -31t-33.5 -13h-56q-38 0 -38 38v72q0 40 44 40h56q42 0 42 -43v-63z" />
    <glyph glyph-name="cedilla" unicode="&#xb8;" horiz-adv-x="676" 
d="M414 -40q13 -13 13 -29q0 -18 -14 -31l-98 -112q-11 -13 -30 -13q-21 0 -35 15l-39 40q-11 11 -11 28q0 16 11 26l118 104q14 12 28 12q17 0 32 -15z" />
    <glyph glyph-name="uni00B9" unicode="&#xb9;" horiz-adv-x="357" 
d="M233 283q0 -33 -35 -33h-36q-14 0 -24 11t-10 22v264q0 23 -20 23q-28 0 -28 34v41q0 31 36 31h86q31 0 31 -36v-357z" />
    <glyph glyph-name="guillemotright" unicode="&#xbb;" horiz-adv-x="960" 
d="M903 323l-313 -312q-17 -17 -32 -17q-12 0 -23 11l-48 48q-14 14 -14 27q0 14 17 31l213 214q12 12 12 31q0 15 -10 25l-212 212q-11 11 -11 25q0 17 14 31l42 42q12 12 29 12t27 -10l309 -309q13 -13 13 -31q0 -17 -13 -30zM483 323l-313 -312q-17 -17 -32 -17
q-12 0 -23 11l-48 48q-14 14 -14 27q0 14 17 31l213 214q12 12 12 31q0 15 -10 25l-212 212q-11 11 -11 25q0 17 14 31l42 42q12 12 29 12t27 -10l309 -309q13 -13 13 -31q0 -17 -13 -30z" />
    <glyph glyph-name="onequarter" unicode="&#xbc;" horiz-adv-x="1029" 
d="M982 34q0 -34 -34 -34h-47q-11 0 -11 -15v-96q0 -33 -35 -33h-36q-34 0 -34 33v99q0 12 -13 12h-209q-38 0 -38 26q0 12 10 25l303 382q15 18 29 18q23 0 23 -34v-299q0 -13 13 -13h46q33 0 33 -35v-36zM720 603l-435 -621q-11 -16 -30 -16q-14 0 -26 9l-49 34
q-14 10 -17 27q-2 17 6 28l434 620q16 22 33 22q11 0 24 -9l56 -39q15 -11 15 -26q0 -13 -11 -29zM233 283q0 -33 -35 -33h-36q-14 0 -24 11t-10 22v264q0 23 -20 23q-28 0 -28 34v41q0 31 36 31h86q31 0 31 -36v-357zM786 171q0 5 -7 7q-8 3 -11 -1l-56 -69q-2 -2 2 -3h60
q11 0 11 11z" />
    <glyph glyph-name="onehalf" unicode="&#xbd;" horiz-adv-x="1106" 
d="M1037 34q0 -34 -33 -34h-293q-32 0 -32 28q0 12 9 22l142 170q22 26 22 56q0 37 -30 58q-31 22 -83 0q-7 -3 -13 -3q-16 0 -23 19l-17 46q-6 25 19 35q37 15 86 15q66 0 103 -26q68 -47 68 -136q0 -71 -49 -127l-27 -31q-7 -8 -7 -13q0 -8 18 -8h108q32 0 32 -35v-36z
M720 603l-435 -621q-11 -16 -30 -16q-14 0 -26 9l-49 34q-14 10 -17 27q-2 17 6 28l434 620q16 22 33 22q11 0 24 -9l56 -39q15 -11 15 -26q0 -13 -11 -29zM233 283q0 -33 -35 -33h-36q-14 0 -24 11t-10 22v264q0 23 -20 23q-28 0 -28 34v41q0 31 36 31h86q31 0 31 -36v-357
z" />
    <glyph glyph-name="threequarters" unicode="&#xbe;" horiz-adv-x="1206" 
d="M1183 34q0 -34 -34 -34h-47q-11 0 -11 -15v-96q0 -33 -35 -33h-36q-34 0 -34 33v99q0 12 -13 12h-209q-38 0 -38 26q0 12 10 25l303 382q15 18 29 18q23 0 23 -34v-299q0 -13 13 -13h46q33 0 33 -35v-36zM930 603l-435 -621q-11 -16 -30 -16q-14 0 -26 9l-49 34
q-14 10 -17 27q-2 17 6 28l434 620q16 22 33 22q11 0 24 -9l56 -39q15 -11 15 -26q0 -13 -11 -29zM352 244q0 -74 -53 -128t-127 -54h-78q-34 0 -34 34v36q0 35 33 35h70q32 0 56 21.5t24 52.5q0 32 -24 53.5t-57 21.5h-68q-34 0 -34 34v37q0 35 33 35h70q32 0 56 21t24 52
q0 32 -24 53.5t-57 21.5h-68q-34 0 -34 34v36q0 36 33 36h80q73 0 126 -52t53 -125q0 -67 -42 -113q-11 -16 2 -30q40 -43 40 -112zM987 171q0 5 -7 7q-8 3 -11 -1l-56 -69q-2 -2 2 -3h60q11 0 11 11z" />
    <glyph glyph-name="questiondown" unicode="&#xbf;" horiz-adv-x="581" 
d="M383 564q0 -40 -44 -40h-56q-42 0 -42 43v63q0 18 14.5 31t33.5 13h56q38 0 38 -38v-72zM557 -111q-38 -63 -103.5 -101t-142.5 -38q-115 0 -196.5 83t-81.5 199v25q0 102 57 178q49 65 119 87q33 10 33 47v37q0 44 43 44h60q39 0 39 -42v-169q0 -31 -36 -31h-34
q-59 0 -99 -44.5t-40 -105.5v-25q0 -62 41 -106.5t101 -44.5q81 0 119 69q17 30 45 13l66 -40q23 -14 10 -35z" />
    <glyph glyph-name="Agrave" unicode="&#xc0;" horiz-adv-x="847" 
d="M540 998l-25 -25q-15 -15 -32 -15q-14 0 -28 12l-118 104q-11 10 -11 26q0 17 11 28l39 40q14 15 35 15q19 0 30 -13l98 -112q14 -13 14 -31q0 -16 -13 -29zM840 46q4 -10 4 -18q0 -28 -35 -28h-73q-45 0 -61 40l-65 164q-13 32 -43 32h-292q-30 0 -41 -27l-67 -169
q-16 -40 -61 -40h-80q-31 0 -31 21q0 9 7 25l337 818q17 41 56 41h51q40 0 57 -41zM528 407l-82 205q-9 23 -25 23q-17 0 -27 -24l-82 -206q-3 -8 2.5 -17.5t14.5 -9.5h183q10 0 15 10t1 19z" />
    <glyph glyph-name="Aacute" unicode="&#xc1;" horiz-adv-x="847" 
d="M561 1074l-118 -104q-14 -12 -28 -12q-17 0 -32 15l-25 25q-13 13 -13 29q0 18 14 31l98 112q11 13 30 13q21 0 35 -15l39 -40q11 -11 11 -28q0 -16 -11 -26zM840 46q4 -10 4 -18q0 -28 -35 -28h-73q-45 0 -61 40l-65 164q-13 32 -43 32h-292q-30 0 -41 -27l-67 -169
q-16 -40 -61 -40h-80q-31 0 -31 21q0 9 7 25l337 818q17 41 56 41h51q40 0 57 -41zM528 407l-82 205q-9 23 -25 23q-17 0 -27 -24l-82 -206q-3 -8 2.5 -17.5t14.5 -9.5h183q10 0 15 10t1 19z" />
    <glyph glyph-name="Acircumflex" unicode="&#xc2;" horiz-adv-x="847" 
d="M641 1000l-34 -34q-11 -11 -21 -11q-11 0 -26 14l-122 120q-16 16 -31 1l-121 -119q-22 -22 -47 2l-29 28q-11 10 -10 25q0 15 8 23l189 188q25 24 49 0l192 -191q13 -13 13 -25q0 -11 -10 -21zM840 46q4 -10 4 -18q0 -28 -35 -28h-73q-45 0 -61 40l-65 164
q-13 32 -43 32h-292q-30 0 -41 -27l-67 -169q-16 -40 -61 -40h-80q-31 0 -31 21q0 9 7 25l337 818q17 41 56 41h51q40 0 57 -41zM528 407l-82 205q-9 23 -25 23q-17 0 -27 -24l-82 -206q-3 -8 2.5 -17.5t14.5 -9.5h183q10 0 15 10t1 19z" />
    <glyph glyph-name="Atilde" unicode="&#xc3;" horiz-adv-x="847" 
d="M717 1057q-58 -83 -170 -83q-75 0 -129.5 36.5t-91.5 36.5q-34 0 -70 -39q-11 -9 -20 -9t-28 15l-30 24q-11 9 -11 20q0 13 15 31q62 73 148 73q69 0 123 -35.5t85 -35.5q52 0 90 48q7 9 20 9q16 0 28 -14l31 -34q23 -25 10 -43zM840 46q4 -10 4 -18q0 -28 -35 -28h-73
q-45 0 -61 40l-65 164q-13 32 -43 32h-292q-30 0 -41 -27l-67 -169q-16 -40 -61 -40h-80q-31 0 -31 21q0 9 7 25l337 818q17 41 56 41h51q40 0 57 -41zM528 407l-82 205q-9 23 -25 23q-17 0 -27 -24l-82 -206q-3 -8 2.5 -17.5t14.5 -9.5h183q10 0 15 10t1 19z" />
    <glyph glyph-name="Adieresis" unicode="&#xc4;" horiz-adv-x="847" 
d="M761 921q0 -36 -25.5 -61.5t-61.5 -25.5t-61.5 25.5t-25.5 61.5t25.5 61.5t61.5 25.5t61.5 -25.5t25.5 -61.5zM270 921q0 -36 -25.5 -61.5t-61.5 -25.5t-61.5 25.5t-25.5 61.5t25.5 61.5t61.5 25.5t61.5 -25.5t25.5 -61.5zM845 46q4 -10 4 -18q0 -28 -35 -28h-73
q-45 0 -61 40l-65 164q-13 32 -43 32h-292q-30 0 -41 -27l-67 -169q-16 -40 -61 -40h-80q-31 0 -31 21q0 9 7 25l337 818q17 41 56 41h51q40 0 57 -41zM533 407l-82 205q-9 23 -25 23q-17 0 -27 -24l-82 -206q-3 -8 2.5 -17.5t14.5 -9.5h183q10 0 15 10t1 19z" />
    <glyph glyph-name="Aring" unicode="&#xc5;" horiz-adv-x="847" 
d="M566 1113q0 -58 -41 -98.5t-99 -40.5t-99 40.5t-41 98.5t41 99t99 41t99 -41t41 -99zM845 46q4 -10 4 -18q0 -28 -35 -28h-73q-45 0 -61 40l-65 164q-13 32 -43 32h-292q-30 0 -41 -27l-67 -169q-16 -40 -61 -40h-80q-31 0 -31 21q0 9 7 25l337 818q17 41 56 41h51
q40 0 57 -41zM496 1114q0 28 -20.5 49t-49.5 21q-28 0 -49 -21t-21 -49q0 -30 20.5 -50.5t49.5 -20.5t49.5 20.5t20.5 50.5zM533 407l-82 205q-9 23 -25 23q-17 0 -27 -24l-82 -206q-3 -8 2.5 -17.5t14.5 -9.5h183q10 0 15 10t1 19z" />
    <glyph glyph-name="AE" unicode="&#xc6;" horiz-adv-x="1003" 
d="M951 40q0 -17 -12.5 -28.5t-26.5 -11.5h-482q-35 0 -35 43v155q0 38 -44 38h-76q-30 0 -41 -27l-67 -169q-16 -40 -61 -40h-80q-31 0 -31 21q0 9 7 25l337 818q17 41 56 41h517q14 0 26.5 -11.5t12.5 -28.5v-60q0 -42 -38 -42h-338q-38 0 -38 -41v-142q0 -17 12 -29
t29 -12h287q38 0 38 -42v-60q0 -17 -12.5 -28.5t-26.5 -11.5h-284q-17 0 -30 -13t-13 -30v-164q0 -48 38 -48h338q38 0 38 -42v-60zM395 409v168q0 9 -6 9q-6 -1 -8 -6l-69 -175q-3 -8 2.5 -17.5t14.5 -9.5h37q29 0 29 31z" />
    <glyph glyph-name="Ccedilla" unicode="&#xc7;" horiz-adv-x="746" 
d="M702 110q-87 -99 -212 -120q-20 -3 -20 -15q0 -7 7 -15q13 -13 13 -29q0 -18 -14 -31l-98 -112q-11 -13 -30 -13q-21 0 -35 15l-39 40q-11 11 -11 28q0 16 11 26q27 23 86 74q9 8 9 17q0 16 -30 24q-111 31 -183.5 125t-72.5 213v237q0 145 103 248t248 103
q129 0 227 -84q20 -17 3 -37l-52 -63q-12 -14 -23 -14q-9 0 -23 11q-57 47 -132 47q-87 0 -149 -62t-62 -149v-237q0 -87 62 -149t149 -62q92 0 155 69q21 23 43 3l64 -56q19 -17 6 -32z" />
    <glyph glyph-name="Egrave" unicode="&#xc8;" horiz-adv-x="709" 
d="M498 998l-25 -25q-15 -15 -32 -15q-14 0 -28 12l-118 104q-11 10 -11 26q0 17 11 28l39 40q14 15 35 15q19 0 30 -13l98 -112q14 -13 14 -31q0 -16 -13 -29zM651 40q0 -17 -12.5 -28.5t-26.5 -11.5h-482q-35 0 -35 43v820q0 42 42 42h475q14 0 26.5 -11.5t12.5 -28.5v-60
q0 -42 -38 -42h-338q-38 0 -38 -41v-142q0 -17 12 -29t29 -12h287q38 0 38 -42v-60q0 -17 -12.5 -28.5t-26.5 -11.5h-284q-17 0 -30 -13t-13 -30v-164q0 -48 38 -48h338q38 0 38 -42v-60z" />
    <glyph glyph-name="Eacute" unicode="&#xc9;" horiz-adv-x="709" 
d="M513 1074l-118 -104q-14 -12 -28 -12q-17 0 -32 15l-25 25q-13 13 -13 29q0 18 14 31l98 112q11 13 30 13q21 0 35 -15l39 -40q11 -11 11 -28q0 -16 -11 -26zM651 40q0 -17 -12.5 -28.5t-26.5 -11.5h-482q-35 0 -35 43v820q0 42 42 42h475q14 0 26.5 -11.5t12.5 -28.5
v-60q0 -42 -38 -42h-338q-38 0 -38 -41v-142q0 -17 12 -29t29 -12h287q38 0 38 -42v-60q0 -17 -12.5 -28.5t-26.5 -11.5h-284q-17 0 -30 -13t-13 -30v-164q0 -48 38 -48h338q38 0 38 -42v-60z" />
    <glyph glyph-name="Ecircumflex" unicode="&#xca;" horiz-adv-x="709" 
d="M605 1000l-34 -34q-11 -11 -21 -11q-11 0 -26 14l-122 120q-16 16 -31 1l-121 -119q-22 -22 -47 2l-29 28q-11 10 -10 25q0 15 8 23l189 188q25 24 49 0l192 -191q13 -13 13 -25q0 -11 -10 -21zM651 40q0 -17 -12.5 -28.5t-26.5 -11.5h-482q-35 0 -35 43v820q0 42 42 42
h475q14 0 26.5 -11.5t12.5 -28.5v-60q0 -42 -38 -42h-338q-38 0 -38 -41v-142q0 -17 12 -29t29 -12h287q38 0 38 -42v-60q0 -17 -12.5 -28.5t-26.5 -11.5h-284q-17 0 -30 -13t-13 -30v-164q0 -48 38 -48h338q38 0 38 -42v-60z" />
    <glyph glyph-name="Edieresis" unicode="&#xcb;" horiz-adv-x="709" 
d="M579 1038q0 -36 -25.5 -61.5t-61.5 -25.5t-61.5 25.5t-25.5 61.5t25.5 61.5t61.5 25.5t61.5 -25.5t25.5 -61.5zM366 1038q0 -36 -25.5 -61.5t-61.5 -25.5t-61.5 25.5t-25.5 61.5t25.5 61.5t61.5 25.5t61.5 -25.5t25.5 -61.5zM651 40q0 -17 -12.5 -28.5t-26.5 -11.5h-482
q-35 0 -35 43v820q0 42 42 42h475q14 0 26.5 -11.5t12.5 -28.5v-60q0 -42 -38 -42h-338q-38 0 -38 -41v-142q0 -17 12 -29t29 -12h287q38 0 38 -42v-60q0 -17 -12.5 -28.5t-26.5 -11.5h-284q-17 0 -30 -13t-13 -30v-164q0 -48 38 -48h338q38 0 38 -42v-60z" />
    <glyph glyph-name="Igrave" unicode="&#xcc;" horiz-adv-x="331" 
d="M257 998l-25 -25q-15 -15 -32 -15q-14 0 -28 12l-118 104q-11 10 -11 26q0 17 11 28l39 40q14 15 35 15q19 0 30 -13l98 -112q14 -13 14 -31q0 -16 -13 -29zM230 38q0 -38 -42 -38h-60q-17 0 -28.5 12.5t-11.5 26.5v822q0 44 39 44h68q35 0 35 -43v-824z" />
    <glyph glyph-name="Iacute" unicode="&#xcd;" horiz-adv-x="331" 
d="M266 1074l-118 -104q-14 -12 -28 -12q-17 0 -32 15l-25 25q-13 13 -13 29q0 18 14 31l98 112q11 13 30 13q21 0 35 -15l39 -40q11 -11 11 -28q0 -16 -11 -26zM230 38q0 -38 -42 -38h-60q-17 0 -28.5 12.5t-11.5 26.5v822q0 44 39 44h68q35 0 35 -43v-824z" />
    <glyph glyph-name="Icircumflex" unicode="&#xce;" horiz-adv-x="331" 
d="M381 1000l-34 -34q-11 -11 -21 -11q-11 0 -26 14l-122 120q-16 16 -31 1l-121 -119q-22 -22 -47 2l-29 28q-11 10 -10 25q0 15 8 23l189 188q25 24 49 0l192 -191q13 -13 13 -25q0 -11 -10 -21zM230 38q0 -38 -42 -38h-60q-17 0 -28.5 12.5t-11.5 26.5v822q0 44 39 44h68
q35 0 35 -43v-824z" />
    <glyph glyph-name="Idieresis" unicode="&#xcf;" horiz-adv-x="331" 
d="M355 1038q0 -36 -25.5 -61.5t-61.5 -25.5t-61.5 25.5t-25.5 61.5t25.5 61.5t61.5 25.5t61.5 -25.5t25.5 -61.5zM142 1038q0 -36 -25.5 -61.5t-61.5 -25.5t-61.5 25.5t-25.5 61.5t25.5 61.5t61.5 25.5t61.5 -25.5t25.5 -61.5zM230 38q0 -38 -42 -38h-60q-17 0 -28.5 12.5
t-11.5 26.5v822q0 44 39 44h68q35 0 35 -43v-824z" />
    <glyph glyph-name="Eth" unicode="&#xd0;" horiz-adv-x="879" 
d="M813 293q0 -118 -94.5 -205.5t-220.5 -87.5h-266q-35 0 -35 43v140q0 11 -15 14t-23 -5l-37 -40q-17 -18 -31 -18q-13 0 -27 14l-48 49q-11 12 -11 24q0 15 16 31l141 141q35 35 35 84v386q0 42 42 42h266q124 0 216 -92.5t92 -209.5v-310zM671 302v290q0 63 -48.5 117
t-115.5 54h-130q-38 0 -38 -41v-104q0 -10 13 -15q12 -4 20 3l64 61q11 11 26 11q17 0 31 -14l42 -42q12 -12 12 -29q0 -16 -11 -27l-164 -161q-33 -32 -33 -84v-131q0 -48 38 -48h125q66 0 117.5 50.5t51.5 109.5z" />
    <glyph glyph-name="Ntilde" unicode="&#xd1;" horiz-adv-x="858" 
d="M711 1057q-58 -83 -170 -83q-75 0 -129.5 36.5t-91.5 36.5q-34 0 -70 -39q-11 -9 -20 -9t-28 15l-30 24q-11 9 -11 20q0 13 15 31q62 73 148 73q69 0 123 -35.5t85 -35.5q52 0 90 48q7 9 20 9q16 0 28 -14l31 -34q23 -25 10 -43zM767 38q0 -38 -42 -38h-40q-33 0 -60 39
l-360 514q-9 12 -19 12q-16 0 -16 -25v-502q0 -38 -42 -38h-60q-17 0 -28.5 12.5t-11.5 26.5v822q0 44 39 44h46q27 0 57 -43l359 -507q12 -17 23 -17q13 0 13 27v496q0 44 39 44h68q35 0 35 -43v-824z" />
    <glyph glyph-name="Ograve" unicode="&#xd2;" horiz-adv-x="856" 
d="M558 998l-25 -25q-15 -15 -32 -15q-14 0 -28 12l-118 104q-11 10 -11 26q0 17 11 28l39 40q14 15 35 15q19 0 30 -13l98 -112q14 -13 14 -31q0 -16 -13 -29zM785 337q0 -145 -103 -248t-248 -103t-248 103t-103 248v237q0 145 103 248t248 103t248 -103t103 -248v-237z
M645 337v237q0 87 -62 149t-149 62t-149 -62t-62 -149v-237q0 -87 62 -149t149 -62t149 62t62 149z" />
    <glyph glyph-name="Oacute" unicode="&#xd3;" horiz-adv-x="856" 
d="M567 1074l-118 -104q-14 -12 -28 -12q-17 0 -32 15l-25 25q-13 13 -13 29q0 18 14 31l98 112q11 13 30 13q21 0 35 -15l39 -40q11 -11 11 -28q0 -16 -11 -26zM785 337q0 -145 -103 -248t-248 -103t-248 103t-103 248v237q0 145 103 248t248 103t248 -103t103 -248v-237z
M645 337v237q0 87 -62 149t-149 62t-149 -62t-62 -149v-237q0 -87 62 -149t149 -62t149 62t62 149z" />
    <glyph glyph-name="Ocircumflex" unicode="&#xd4;" horiz-adv-x="856" 
d="M659 1000l-34 -34q-11 -11 -21 -11q-11 0 -26 14l-122 120q-16 16 -31 1l-121 -119q-22 -22 -47 2l-29 28q-11 10 -10 25q0 15 8 23l189 188q25 24 49 0l192 -191q13 -13 13 -25q0 -11 -10 -21zM785 337q0 -145 -103 -248t-248 -103t-248 103t-103 248v237q0 145 103 248
t248 103t248 -103t103 -248v-237zM645 337v237q0 87 -62 149t-149 62t-149 -62t-62 -149v-237q0 -87 62 -149t149 -62t149 62t62 149z" />
    <glyph glyph-name="Otilde" unicode="&#xd5;" horiz-adv-x="856" 
d="M733 1057q-58 -83 -170 -83q-75 0 -129.5 36.5t-91.5 36.5q-34 0 -70 -39q-11 -9 -20 -9t-28 15l-30 24q-11 9 -11 20q0 13 15 31q62 73 148 73q69 0 123 -35.5t85 -35.5q52 0 90 48q7 9 20 9q16 0 28 -14l31 -34q23 -25 10 -43zM785 337q0 -145 -103 -248t-248 -103
t-248 103t-103 248v237q0 145 103 248t248 103t248 -103t103 -248v-237zM645 337v237q0 87 -62 149t-149 62t-149 -62t-62 -149v-237q0 -87 62 -149t149 -62t149 62t62 149z" />
    <glyph glyph-name="Odieresis" unicode="&#xd6;" horiz-adv-x="856" 
d="M785 337q0 -145 -103 -248t-248 -103t-248 103t-103 248v237q0 130 89 232q8 9 8 16q0 11 -18 17q-60 19 -60 83q0 36 25.5 61.5t61.5 25.5t61.5 -25.5t25.5 -61.5q0 -26 17 -26q3 0 7 2q66 27 134 27q71 0 136 -28q23 -7 23 25q0 36 25.5 61.5t61.5 25.5t61.5 -25.5
t25.5 -61.5q0 -63 -60 -83q-20 -7 -20 -17q0 -5 6 -12q92 -97 92 -236v-237zM645 337v237q0 87 -62 149t-149 62t-149 -62t-62 -149v-237q0 -87 62 -149t149 -62t149 62t62 149z" />
    <glyph glyph-name="multiply" unicode="&#xd7;" horiz-adv-x="690" 
d="M564 186l-48 -48q-11 -11 -23 -11q-15 0 -32 17l-86 85q-11 11 -26 11q-16 0 -28 -12l-83 -83q-18 -18 -32 -18q-13 0 -27 14l-48 48q-11 11 -11 23q0 15 17 32l85 85q26 26 1 52l-88 89q-11 11 -11 25q0 17 14 31l42 43q11 12 28 12t28 -11l85 -86q11 -11 27 -11
q18 0 31 13l84 84q11 11 25 11q17 0 31 -14l43 -42q12 -11 12 -28t-11 -28l-84 -83q-13 -13 -13 -31q0 -16 11 -27l83 -83q18 -18 18 -32q0 -13 -14 -27z" />
    <glyph glyph-name="Oslash" unicode="&#xd8;" horiz-adv-x="856" 
d="M796 854l-46 -64q-12 -16 -12 -31q0 -9 10 -28q37 -73 37 -157v-237q0 -145 -103 -248t-248 -103q-86 0 -162 40q-20 10 -30 10q-15 0 -26 -14l-28 -37q-12 -16 -31 -16q-13 0 -26 9l-49 35q-17 12 -17 33q0 13 7 22l44 60q17 23 1 58q-34 73 -34 151v237q0 145 103 248
t248 103q87 0 166 -42q13 -7 23 -7q15 0 25 14l31 45q16 23 33 23q11 0 24 -9l56 -39q16 -11 16 -26q0 -14 -12 -30zM522 710q11 15 11 29q0 22 -19 30q-39 16 -80 16q-87 0 -149 -62t-62 -149v-237q0 -15 16 -15q10 0 17 10zM645 337v237q0 33 -15 33q-7 0 -16 -13
l-276 -396q-9 -13 -9 -25q0 -19 16 -27q42 -20 89 -20q87 0 149 62t62 149z" />
    <glyph glyph-name="Ugrave" unicode="&#xd9;" horiz-adv-x="806" 
d="M516 998l-25 -25q-15 -15 -32 -15q-14 0 -28 12l-118 104q-11 10 -11 26q0 17 11 28l39 40q14 15 35 15q19 0 30 -13l98 -112q14 -13 14 -31q0 -16 -13 -29zM720 276q0 -118 -94.5 -206t-220.5 -87q-124 1 -217 88.5t-93 203.5v586q0 44 39 44h68q35 0 35 -43v-582
q0 -62 52 -112t120 -49q66 1 117.5 51t51.5 109v582q0 44 39 44h68q35 0 35 -43v-586z" />
    <glyph glyph-name="Uacute" unicode="&#xda;" horiz-adv-x="806" 
d="M561 1074l-118 -104q-14 -12 -28 -12q-17 0 -32 15l-25 25q-13 13 -13 29q0 18 14 31l98 112q11 13 30 13q21 0 35 -15l39 -40q11 -11 11 -28q0 -16 -11 -26zM720 276q0 -118 -94.5 -206t-220.5 -87q-124 1 -217 88.5t-93 203.5v586q0 44 39 44h68q35 0 35 -43v-582
q0 -62 52 -112t120 -49q66 1 117.5 51t51.5 109v582q0 44 39 44h68q35 0 35 -43v-586z" />
    <glyph glyph-name="Ucircumflex" unicode="&#xdb;" horiz-adv-x="806" 
d="M629 1000l-34 -34q-11 -11 -21 -11q-11 0 -26 14l-122 120q-16 16 -31 1l-121 -119q-22 -22 -47 2l-29 28q-11 10 -10 25q0 15 8 23l189 188q25 24 49 0l192 -191q13 -13 13 -25q0 -11 -10 -21zM720 276q0 -118 -94.5 -206t-220.5 -87q-124 1 -217 88.5t-93 203.5v586
q0 44 39 44h68q35 0 35 -43v-582q0 -62 52 -112t120 -49q66 1 117.5 51t51.5 109v582q0 44 39 44h68q35 0 35 -43v-586z" />
    <glyph glyph-name="Udieresis" unicode="&#xdc;" horiz-adv-x="806" 
d="M597 1038q0 -36 -25.5 -61.5t-61.5 -25.5t-61.5 25.5t-25.5 61.5t25.5 61.5t61.5 25.5t61.5 -25.5t25.5 -61.5zM384 1038q0 -36 -25.5 -61.5t-61.5 -25.5t-61.5 25.5t-25.5 61.5t25.5 61.5t61.5 25.5t61.5 -25.5t25.5 -61.5zM720 276q0 -118 -94.5 -206t-220.5 -87
q-124 1 -217 88.5t-93 203.5v586q0 44 39 44h68q35 0 35 -43v-582q0 -62 52 -112t120 -49q66 1 117.5 51t51.5 109v582q0 44 39 44h68q35 0 35 -43v-586z" />
    <glyph glyph-name="Yacute" unicode="&#xdd;" horiz-adv-x="682" 
d="M513 1074l-118 -104q-14 -12 -28 -12q-17 0 -32 15l-25 25q-13 13 -13 29q0 18 14 31l98 112q11 13 30 13q21 0 35 -15l39 -40q11 -11 11 -28q0 -16 -11 -26zM682 859l-257 -490q-12 -23 -12 -49v-282q0 -38 -42 -38h-60q-17 0 -28.5 12.5t-11.5 26.5v283q0 28 -10 47
l-257 490q-5 9 -5 17q0 29 37 29h72q41 0 61 -40l149 -291q11 -22 26 -22q14 0 26 23l147 290q20 40 61 40h72q37 0 37 -29q0 -8 -5 -17z" />
    <glyph glyph-name="Thorn" unicode="&#xde;" horiz-adv-x="736" 
d="M644 406q0 -117 -84.5 -200t-202.5 -83q-37 0 -79 12q-6 2 -12 2q-22 0 -22 -29v-304q0 -44 -39 -44h-68q-35 0 -35 43v1058q0 44 39 44h68q35 0 35 -43v-16q0 -38 46 -38h76q115 0 196.5 -76t81.5 -190v-136zM502 405v136q0 59 -41.5 97t-100.5 38h-78q-38 0 -38 -36
v-278q0 -55 40 -84q33 -23 79 -23q59 0 99 44.5t40 105.5z" />
    <glyph glyph-name="germandbls" unicode="&#xdf;" horiz-adv-x="818" 
d="M738 203q0 -118 -83 -202.5t-200 -84.5h-59q-14 0 -26.5 11.5t-12.5 28.5v60q0 42 38 42h46q61 0 105.5 40t44.5 99q0 60 -44.5 101t-106.5 41h-23q-14 0 -26.5 11.5t-12.5 28.5v61q0 42 38 42h25q61 0 105.5 40t44.5 99q0 60 -44.5 101t-106.5 41h-107q-38 0 -38 -41
v-678q0 -44 -39 -44h-68q-35 0 -35 43v470q0 21 -21 21h-46q-43 0 -43 35v68q0 39 44 39h42q24 0 24 23v48q0 69 42 113.5t117 44.5h144q116 0 199 -81.5t83 -196.5q0 -108 -72 -192q-21 -24 0 -47q72 -78 72 -185z" />
    <glyph glyph-name="agrave" unicode="&#xe0;" horiz-adv-x="642" 
d="M429 800l-25 -25q-15 -15 -32 -15q-14 0 -28 12l-118 104q-11 10 -11 26q0 17 11 28l39 40q14 15 35 15q19 0 30 -13l98 -112q14 -13 14 -31q0 -16 -13 -29zM545 38q0 -38 -42 -38h-227q-86 0 -147 61t-61 147q0 83 68 147q65 61 140 61h101q27 0 24 26q-8 73 -72 97
q-38 13 -128 13q-34 0 -34 31v60q0 42 38 42q196 0 273 -68q67 -59 67 -194v-385zM403 146v122q0 24 -25 24h-86q-35 0 -59 -24.5t-24 -58.5q0 -35 24.5 -60t58.5 -25h87q24 0 24 22z" />
    <glyph glyph-name="aacute" unicode="&#xe1;" horiz-adv-x="632" 
d="M464 876l-118 -104q-14 -12 -28 -12q-17 0 -32 15l-25 25q-13 13 -13 29q0 18 14 31l98 112q11 13 30 13q21 0 35 -15l39 -40q11 -11 11 -28q0 -16 -11 -26zM545 38q0 -38 -42 -38h-227q-86 0 -147 61t-61 147q0 83 68 147q65 61 140 61h101q27 0 24 26q-8 73 -72 97
q-38 13 -128 13q-34 0 -34 31v60q0 42 38 42q196 0 273 -68q67 -59 67 -194v-385zM403 146v122q0 24 -25 24h-86q-35 0 -59 -24.5t-24 -58.5q0 -35 24.5 -60t58.5 -25h87q24 0 24 22z" />
    <glyph glyph-name="acircumflex" unicode="&#xe2;" horiz-adv-x="632" 
d="M537 784l-34 -34q-11 -11 -21 -11q-11 0 -26 14l-122 120q-16 16 -31 1l-121 -119q-22 -22 -47 2l-29 28q-11 10 -10 25q0 15 8 23l189 188q25 24 49 0l192 -191q13 -13 13 -25q0 -11 -10 -21zM545 38q0 -38 -42 -38h-227q-86 0 -147 61t-61 147q0 83 68 147
q65 61 140 61h101q27 0 24 26q-8 73 -72 97q-38 13 -128 13q-34 0 -34 31v60q0 42 38 42q196 0 273 -68q67 -59 67 -194v-385zM403 146v122q0 24 -25 24h-86q-35 0 -59 -24.5t-24 -58.5q0 -35 24.5 -60t58.5 -25h87q24 0 24 22z" />
    <glyph glyph-name="atilde" unicode="&#xe3;" horiz-adv-x="627" 
d="M596 859q-58 -83 -170 -83q-75 0 -129.5 36.5t-91.5 36.5q-34 0 -70 -39q-11 -9 -20 -9t-28 15l-30 24q-11 9 -11 20q0 13 15 31q62 73 148 73q69 0 123 -35.5t85 -35.5q52 0 90 48q7 9 20 9q16 0 28 -14l31 -34q23 -25 10 -43zM545 38q0 -38 -42 -38h-227q-86 0 -147 61
t-61 147q0 83 68 147q65 61 140 61h101q27 0 24 26q-8 73 -72 97q-38 13 -128 13q-34 0 -34 31v60q0 42 38 42q196 0 273 -68q67 -59 67 -194v-385zM403 146v122q0 24 -25 24h-86q-35 0 -59 -24.5t-24 -58.5q0 -35 24.5 -60t58.5 -25h87q24 0 24 22z" />
    <glyph glyph-name="adieresis" unicode="&#xe4;" horiz-adv-x="632" 
d="M505 882q0 -36 -25.5 -61.5t-61.5 -25.5t-61.5 25.5t-25.5 61.5t25.5 61.5t61.5 25.5t61.5 -25.5t25.5 -61.5zM292 882q0 -36 -25.5 -61.5t-61.5 -25.5t-61.5 25.5t-25.5 61.5t25.5 61.5t61.5 25.5t61.5 -25.5t25.5 -61.5zM545 38q0 -38 -42 -38h-227q-86 0 -147 61
t-61 147q0 83 68 147q65 61 140 61h101q27 0 24 26q-8 73 -72 97q-38 13 -128 13q-34 0 -34 31v60q0 42 38 42q196 0 273 -68q67 -59 67 -194v-385zM403 146v122q0 24 -25 24h-86q-35 0 -59 -24.5t-24 -58.5q0 -35 24.5 -60t58.5 -25h87q24 0 24 22z" />
    <glyph glyph-name="aring" unicode="&#xe5;" horiz-adv-x="632" 
d="M474 853q0 -58 -41 -98.5t-99 -40.5t-99 40.5t-41 98.5t41 99t99 41t99 -41t41 -99zM404 854q0 28 -20.5 49t-49.5 21q-28 0 -49 -21t-21 -49q0 -30 20.5 -50.5t49.5 -20.5t49.5 20.5t20.5 50.5zM545 38q0 -38 -42 -38h-227q-86 0 -147 61t-61 147q0 83 68 147
q65 61 140 61h101q27 0 24 26q-8 73 -72 97q-38 13 -128 13q-34 0 -34 31v60q0 42 38 42q196 0 273 -68q67 -59 67 -194v-385zM403 146v122q0 24 -25 24h-86q-35 0 -59 -24.5t-24 -58.5q0 -35 24.5 -60t58.5 -25h87q24 0 24 22z" />
    <glyph glyph-name="ae" unicode="&#xe6;" horiz-adv-x="1041" 
d="M984 389q0 -36 -33 -45l-357 -94q-35 -9 -23 -40q36 -95 132 -95q81 0 119 69q17 30 45 13l66 -40q23 -14 10 -35q-38 -63 -103.5 -101t-142.5 -38q-11 0 -101.5 8.5t-193.5 8.5h-111q-86 0 -147 61t-61 147q0 83 68 147q65 61 140 61h101q27 0 24 26q-8 73 -72 97
q-38 13 -128 13q-34 0 -34 31v60q0 42 38 42q175 0 257 -56q18 -12 31 -12q12 0 24 9q75 58 174 58q115 0 196.5 -83t81.5 -199v-13zM818 485q-43 67 -118 67q-54 0 -92.5 -38t-45.5 -93q-2 -15 6.5 -21.5t20.5 -3.5l216 57q29 8 13 32zM418 146v122q0 24 -25 24h-87
q-35 0 -59 -24.5t-24 -58.5q0 -35 24.5 -60t58.5 -25h88q24 0 24 22z" />
    <glyph glyph-name="ccedilla" unicode="&#xe7;" horiz-adv-x="676" 
d="M612 122q-62 -104 -181 -132q-20 -5 -20 -23q0 -4 3 -7q13 -12 13 -27q0 -17 -14 -33l-98 -112q-11 -12 -30 -12q-21 0 -35 14l-39 40q-11 11 -11 28q0 16 11 26q26 22 85 74q10 9 10 18q0 13 -18 18q-87 25 -143.5 100.5t-56.5 170.5v136q0 117 84.5 200t202.5 83
q132 0 215 -104q21 -26 -4 -44l-66 -48q-22 -16 -41 9q-41 55 -110 55q-59 0 -99 -44.5t-40 -105.5v-136q0 -62 41 -106.5t101 -44.5q81 0 119 69q17 30 45 13l66 -40q23 -14 10 -35z" />
    <glyph glyph-name="egrave" unicode="&#xe8;" horiz-adv-x="736" 
d="M468 800l-25 -25q-15 -15 -32 -15q-14 0 -28 12l-118 104q-11 10 -11 26q0 17 11 28l39 40q14 15 35 15q19 0 30 -13l98 -112q14 -13 14 -31q0 -16 -13 -29zM664 389q0 -36 -33 -45l-357 -94q-35 -9 -23 -40q36 -95 132 -95q81 0 119 69q17 30 45 13l66 -40
q23 -14 10 -35q-38 -63 -103.5 -101t-142.5 -38q-115 0 -196.5 83t-81.5 199v136q0 117 84.5 200t202.5 83q115 0 196.5 -83t81.5 -199v-13zM498 485q-43 67 -118 67q-54 0 -92.5 -38t-45.5 -93q-2 -15 6.5 -21.5t20.5 -3.5l216 57q29 8 13 32z" />
    <glyph glyph-name="eacute" unicode="&#xe9;" horiz-adv-x="736" 
d="M489 876l-118 -104q-14 -12 -28 -12q-17 0 -32 15l-25 25q-13 13 -13 29q0 18 14 31l98 112q11 13 30 13q21 0 35 -15l39 -40q11 -11 11 -28q0 -16 -11 -26zM664 389q0 -36 -33 -45l-357 -94q-35 -9 -23 -40q36 -95 132 -95q81 0 119 69q17 30 45 13l66 -40
q23 -14 10 -35q-38 -63 -103.5 -101t-142.5 -38q-115 0 -196.5 83t-81.5 199v136q0 117 84.5 200t202.5 83q115 0 196.5 -83t81.5 -199v-13zM498 485q-43 67 -118 67q-54 0 -92.5 -38t-45.5 -93q-2 -15 6.5 -21.5t20.5 -3.5l216 57q29 8 13 32z" />
    <glyph glyph-name="ecircumflex" unicode="&#xea;" horiz-adv-x="736" 
d="M605 778l-34 -34q-11 -11 -21 -11q-11 0 -26 14l-122 120q-16 16 -31 1l-121 -119q-22 -22 -47 2l-29 28q-11 10 -10 25q0 15 8 23l189 188q25 24 49 0l192 -191q13 -13 13 -25q0 -11 -10 -21zM664 389q0 -36 -33 -45l-357 -94q-35 -9 -23 -40q36 -95 132 -95
q81 0 119 69q17 30 45 13l66 -40q23 -14 10 -35q-38 -63 -103.5 -101t-142.5 -38q-115 0 -196.5 83t-81.5 199v136q0 117 84.5 200t202.5 83q115 0 196.5 -83t81.5 -199v-13zM498 485q-43 67 -118 67q-54 0 -92.5 -38t-45.5 -93q-2 -15 6.5 -21.5t20.5 -3.5l216 57
q29 8 13 32z" />
    <glyph glyph-name="edieresis" unicode="&#xeb;" horiz-adv-x="736" 
d="M585 882q0 -36 -25.5 -61.5t-61.5 -25.5t-61.5 25.5t-25.5 61.5t25.5 61.5t61.5 25.5t61.5 -25.5t25.5 -61.5zM372 882q0 -36 -25.5 -61.5t-61.5 -25.5t-61.5 25.5t-25.5 61.5t25.5 61.5t61.5 25.5t61.5 -25.5t25.5 -61.5zM664 389q0 -36 -33 -45l-357 -94
q-35 -9 -23 -40q36 -95 132 -95q81 0 119 69q17 30 45 13l66 -40q23 -14 10 -35q-38 -63 -103.5 -101t-142.5 -38q-115 0 -196.5 83t-81.5 199v136q0 117 84.5 200t202.5 83q115 0 196.5 -83t81.5 -199v-13zM498 485q-43 67 -118 67q-54 0 -92.5 -38t-45.5 -93
q-2 -15 6.5 -21.5t20.5 -3.5l216 57q29 8 13 32z" />
    <glyph glyph-name="igrave" unicode="&#xec;" 
d="M258 800l-25 -25q-15 -15 -32 -15q-14 0 -28 12l-118 104q-11 10 -11 26q0 17 11 28l39 40q14 15 35 15q19 0 30 -13l98 -112q14 -13 14 -31q0 -16 -13 -29zM230 38q0 -38 -42 -38h-60q-17 0 -28.5 12.5t-11.5 26.5v593q0 44 39 44h68q35 0 35 -43v-595z" />
    <glyph glyph-name="iacute" unicode="&#xed;" 
d="M267 876l-118 -104q-14 -12 -28 -12q-17 0 -32 15l-25 25q-13 13 -13 29q0 18 14 31l98 112q11 13 30 13q21 0 35 -15l39 -40q11 -11 11 -28q0 -16 -11 -26zM230 38q0 -38 -42 -38h-60q-17 0 -28.5 12.5t-11.5 26.5v593q0 44 39 44h68q35 0 35 -43v-595z" />
    <glyph glyph-name="icircumflex" unicode="&#xee;" 
d="M383 778l-34 -34q-11 -11 -21 -11q-11 0 -26 14l-122 120q-16 16 -31 1l-121 -119q-22 -22 -47 2l-29 28q-11 10 -10 25q0 15 8 23l189 188q25 24 49 0l192 -191q13 -13 13 -25q0 -11 -10 -21zM230 38q0 -38 -42 -38h-60q-17 0 -28.5 12.5t-11.5 26.5v593q0 44 39 44h68
q35 0 35 -43v-595z" />
    <glyph glyph-name="idieresis" unicode="&#xef;" 
d="M357 882q0 -36 -25.5 -61.5t-61.5 -25.5t-61.5 25.5t-25.5 61.5t25.5 61.5t61.5 25.5t61.5 -25.5t25.5 -61.5zM144 882q0 -36 -25.5 -61.5t-61.5 -25.5t-61.5 25.5t-25.5 61.5t25.5 61.5t61.5 25.5t61.5 -25.5t25.5 -61.5zM230 38q0 -38 -42 -38h-60q-17 0 -28.5 12.5
t-11.5 26.5v593q0 44 39 44h68q35 0 35 -43v-595z" />
    <glyph glyph-name="eth" unicode="&#xf0;" horiz-adv-x="840" 
d="M771 337q-1 -145 -103.5 -248t-247.5 -103q-146 0 -248.5 102.5t-102.5 248.5q0 132 86 230.5t214 116.5q8 1 11 12q4 10 -1 18q-7 12 -19 12t-31 -14.5t-33 -14.5q-16 0 -27 14l-34 42q-9 12 -9 24q0 20 18 30q22 12 22 27q0 8 -10.5 24t-10.5 28q0 13 12 23l52 44
q12 10 24 10q17 0 34 -19q8 -9 18 -9q15 0 38 22q10 10 23 10q19 0 34 -18l29 -35q10 -12 10 -27q0 -17 -14 -28q-25 -19 -25 -30q0 -13 18 -34l171 -206q55 -66 77 -117q26 -60 25 -135zM631 337q0 87 -62 149t-149 62t-149 -62t-62 -149t62 -149t149 -62t149 62t62 149z
" />
    <glyph glyph-name="ntilde" unicode="&#xf1;" horiz-adv-x="751" 
d="M669 859q-58 -83 -170 -83q-75 0 -129.5 36.5t-91.5 36.5q-34 0 -70 -39q-11 -9 -20 -9t-28 15l-30 24q-11 9 -11 20q0 13 15 31q62 73 148 73q69 0 123 -35.5t85 -35.5q52 0 90 48q7 9 20 9q16 0 28 -14l31 -34q23 -25 10 -43zM664 38q0 -38 -42 -38h-60
q-17 0 -28.5 12.5t-11.5 26.5v362q0 62 -41 106.5t-101 44.5q-59 0 -99 -44.5t-40 -105.5v-364q0 -38 -42 -38h-60q-17 0 -28.5 12.5t-11.5 26.5v362q0 117 84.5 200t202.5 83q115 0 196.5 -83t81.5 -199v-364z" />
    <glyph glyph-name="ograve" unicode="&#xf2;" horiz-adv-x="746" 
d="M504 800l-25 -25q-15 -15 -32 -15q-14 0 -28 12l-118 104q-11 10 -11 26q0 17 11 28l39 40q14 15 35 15q19 0 30 -13l98 -112q14 -13 14 -31q0 -16 -13 -29zM664 266q0 -117 -84.5 -200t-202.5 -83q-115 0 -196.5 83t-81.5 199v136q0 117 84.5 200t202.5 83
q115 0 196.5 -83t81.5 -199v-136zM522 265v136q0 62 -41 106.5t-101 44.5q-59 0 -99 -44.5t-40 -105.5v-136q0 -62 41 -106.5t101 -44.5q59 0 99 44.5t40 105.5z" />
    <glyph glyph-name="oacute" unicode="&#xf3;" horiz-adv-x="746" 
d="M483 876l-118 -104q-14 -12 -28 -12q-17 0 -32 15l-25 25q-13 13 -13 29q0 18 14 31l98 112q11 13 30 13q21 0 35 -15l39 -40q11 -11 11 -28q0 -16 -11 -26zM664 266q0 -117 -84.5 -200t-202.5 -83q-115 0 -196.5 83t-81.5 199v136q0 117 84.5 200t202.5 83
q115 0 196.5 -83t81.5 -199v-136zM522 265v136q0 62 -41 106.5t-101 44.5q-59 0 -99 -44.5t-40 -105.5v-136q0 -62 41 -106.5t101 -44.5q59 0 99 44.5t40 105.5z" />
    <glyph glyph-name="ocircumflex" unicode="&#xf4;" horiz-adv-x="746" 
d="M605 778l-34 -34q-11 -11 -21 -11q-11 0 -26 14l-122 120q-16 16 -31 1l-121 -119q-22 -22 -47 2l-29 28q-11 10 -10 25q0 15 8 23l189 188q25 24 49 0l192 -191q13 -13 13 -25q0 -11 -10 -21zM664 266q0 -117 -84.5 -200t-202.5 -83q-115 0 -196.5 83t-81.5 199v136
q0 117 84.5 200t202.5 83q115 0 196.5 -83t81.5 -199v-136zM522 265v136q0 62 -41 106.5t-101 44.5q-59 0 -99 -44.5t-40 -105.5v-136q0 -62 41 -106.5t101 -44.5q59 0 99 44.5t40 105.5z" />
    <glyph glyph-name="otilde" unicode="&#xf5;" horiz-adv-x="746" 
d="M675 859q-58 -83 -170 -83q-75 0 -129.5 36.5t-91.5 36.5q-34 0 -70 -39q-11 -9 -20 -9t-28 15l-30 24q-11 9 -11 20q0 13 15 31q62 73 148 73q69 0 123 -35.5t85 -35.5q52 0 90 48q7 9 20 9q16 0 28 -14l31 -34q23 -25 10 -43zM664 266q0 -117 -84.5 -200t-202.5 -83
q-115 0 -196.5 83t-81.5 199v136q0 117 84.5 200t202.5 83q115 0 196.5 -83t81.5 -199v-136zM522 265v136q0 62 -41 106.5t-101 44.5q-59 0 -99 -44.5t-40 -105.5v-136q0 -62 41 -106.5t101 -44.5q59 0 99 44.5t40 105.5z" />
    <glyph glyph-name="odieresis" unicode="&#xf6;" horiz-adv-x="746" 
d="M582 882q0 -36 -25.5 -61.5t-61.5 -25.5t-61.5 25.5t-25.5 61.5t25.5 61.5t61.5 25.5t61.5 -25.5t25.5 -61.5zM369 882q0 -36 -25.5 -61.5t-61.5 -25.5t-61.5 25.5t-25.5 61.5t25.5 61.5t61.5 25.5t61.5 -25.5t25.5 -61.5zM664 266q0 -117 -84.5 -200t-202.5 -83
q-115 0 -196.5 83t-81.5 199v136q0 117 84.5 200t202.5 83q115 0 196.5 -83t81.5 -199v-136zM522 265v136q0 62 -41 106.5t-101 44.5q-59 0 -99 -44.5t-40 -105.5v-136q0 -62 41 -106.5t101 -44.5q59 0 99 44.5t40 105.5z" />
    <glyph glyph-name="divide" unicode="&#xf7;" horiz-adv-x="564" 
d="M372 588q0 -36 -25.5 -61.5t-61.5 -25.5t-61.5 25.5t-25.5 61.5t25.5 61.5t61.5 25.5t61.5 -25.5t25.5 -61.5zM489 325q0 -17 -12.5 -28.5t-26.5 -11.5h-329q-44 0 -44 39v68q0 35 43 35h331q38 0 38 -42v-60zM372 130q0 -36 -25.5 -61.5t-61.5 -25.5t-61.5 25.5
t-25.5 61.5t25.5 61.5t61.5 25.5t61.5 -25.5t25.5 -61.5z" />
    <glyph glyph-name="oslash" unicode="&#xf8;" horiz-adv-x="746" 
d="M664 266q0 -117 -84.5 -200t-202.5 -83q-53 0 -97 17q-31 12 -56 -18q-13 -15 -31 -15q-13 0 -25 8l-49 34q-14 10 -17 27q-2 17 6 28l14 20q18 25 -1 68q-22 50 -22 113v136q0 117 84.5 200t202.5 83q53 0 98 -18q14 -6 23 -6q18 0 35 24q15 21 34 21q12 0 23 -8l56 -39
q16 -11 16 -26q0 -13 -12 -29l-15 -21q-13 -19 -13 -36q0 -9 11 -35q22 -52 22 -109v-136zM414 498q7 10 7 20q0 14 -13.5 24t-27.5 10q-59 0 -99 -44.5t-40 -105.5v-90q0 -22 14 -22q6 0 13 4zM522 265v87q0 29 -13 29q-7 0 -13 -9l-140 -202q-10 -15 -10 -27q0 -28 37 -28
q59 0 99 44.5t40 105.5z" />
    <glyph glyph-name="ugrave" unicode="&#xf9;" horiz-adv-x="764" 
d="M486 800l-25 -25q-15 -15 -32 -15q-14 0 -28 12l-118 104q-11 10 -11 26q0 17 11 28l39 40q14 15 35 15q19 0 30 -13l98 -112q14 -13 14 -31q0 -16 -13 -29zM664 275q0 -117 -84.5 -200t-202.5 -83q-115 0 -196.5 83t-81.5 199v364q0 38 42 38h60q17 0 28.5 -12.5
t11.5 -26.5v-362q0 -61 41 -103t101 -42t99.5 41.5t39.5 102.5v364q0 38 42 38h60q17 0 28.5 -12.5t11.5 -26.5v-362z" />
    <glyph glyph-name="uacute" unicode="&#xfa;" horiz-adv-x="764" 
d="M507 876l-118 -104q-14 -12 -28 -12q-17 0 -32 15l-25 25q-13 13 -13 29q0 18 14 31l98 112q11 13 30 13q21 0 35 -15l39 -40q11 -11 11 -28q0 -16 -11 -26zM664 275q0 -117 -84.5 -200t-202.5 -83q-115 0 -196.5 83t-81.5 199v364q0 38 42 38h60q17 0 28.5 -12.5
t11.5 -26.5v-362q0 -61 41 -103t101 -42t99.5 41.5t39.5 102.5v364q0 38 42 38h60q17 0 28.5 -12.5t11.5 -26.5v-362z" />
    <glyph glyph-name="ucircumflex" unicode="&#xfb;" horiz-adv-x="764" 
d="M611 778l-34 -34q-11 -11 -21 -11q-11 0 -26 14l-122 120q-16 16 -31 1l-121 -119q-22 -22 -47 2l-29 28q-11 10 -10 25q0 15 8 23l189 188q25 24 49 0l192 -191q13 -13 13 -25q0 -11 -10 -21zM664 275q0 -117 -84.5 -200t-202.5 -83q-115 0 -196.5 83t-81.5 199v364
q0 38 42 38h60q17 0 28.5 -12.5t11.5 -26.5v-362q0 -61 41 -103t101 -42t99.5 41.5t39.5 102.5v364q0 38 42 38h60q17 0 28.5 -12.5t11.5 -26.5v-362z" />
    <glyph glyph-name="udieresis" unicode="&#xfc;" horiz-adv-x="764" 
d="M585 882q0 -36 -25.5 -61.5t-61.5 -25.5t-61.5 25.5t-25.5 61.5t25.5 61.5t61.5 25.5t61.5 -25.5t25.5 -61.5zM372 882q0 -36 -25.5 -61.5t-61.5 -25.5t-61.5 25.5t-25.5 61.5t25.5 61.5t61.5 25.5t61.5 -25.5t25.5 -61.5zM664 275q0 -117 -84.5 -200t-202.5 -83
q-115 0 -196.5 83t-81.5 199v364q0 38 42 38h60q17 0 28.5 -12.5t11.5 -26.5v-362q0 -61 41 -103t101 -42t99.5 41.5t39.5 102.5v364q0 38 42 38h60q17 0 28.5 -12.5t11.5 -26.5v-362z" />
    <glyph glyph-name="yacute" unicode="&#xfd;" horiz-adv-x="677" 
d="M499 876l-118 -104q-14 -12 -28 -12q-17 0 -32 15l-25 25q-13 13 -13 29q0 18 14 31l98 112q11 13 30 13q21 0 35 -15l39 -40q11 -11 11 -28q0 -16 -11 -26zM675 630l-278 -712q-32 -81 -55 -110q-39 -48 -108 -48h-82q-14 0 -26.5 11.5t-12.5 28.5v60q0 42 38 42h62
q20 0 38 41l24 54q12 28 -3 63l-248 570q-6 13 -6 23q0 23 28 23h92q24 0 41 -40l159 -372q8 -19 18 -19q12 0 21 23l143 368q16 40 45 40h88q27 0 27 -23q0 -10 -5 -23z" />
    <glyph glyph-name="thorn" unicode="&#xfe;" horiz-adv-x="736" 
d="M644 274q0 -117 -84.5 -200t-202.5 -83q-37 0 -79 12q-6 2 -12 2q-22 0 -22 -29v-172q0 -44 -39 -44h-68q-35 0 -35 43v1058q0 44 39 44h68q35 0 35 -43v-148q0 -38 46 -38h76q115 0 196.5 -76t81.5 -190v-136zM502 273v136q0 59 -41.5 97t-100.5 38h-78q-38 0 -38 -36
v-278q0 -55 40 -84q33 -23 79 -23q59 0 99 44.5t40 105.5z" />
    <glyph glyph-name="ydieresis" unicode="&#xff;" horiz-adv-x="677" 
d="M561 882q0 -36 -25.5 -61.5t-61.5 -25.5t-61.5 25.5t-25.5 61.5t25.5 61.5t61.5 25.5t61.5 -25.5t25.5 -61.5zM348 882q0 -36 -25.5 -61.5t-61.5 -25.5t-61.5 25.5t-25.5 61.5t25.5 61.5t61.5 25.5t61.5 -25.5t25.5 -61.5zM675 630l-278 -712q-32 -81 -55 -110
q-39 -48 -108 -48h-82q-14 0 -26.5 11.5t-12.5 28.5v60q0 42 38 42h62q20 0 38 41l24 54q12 28 -3 63l-248 570q-6 13 -6 23q0 23 28 23h92q24 0 41 -40l159 -372q8 -19 18 -19q12 0 21 23l143 368q16 40 45 40h88q27 0 27 -23q0 -10 -5 -23z" />
    <glyph glyph-name="dotlessi" unicode="&#x131;" 
d="M230 38q0 -38 -42 -38h-60q-17 0 -28.5 12.5t-11.5 26.5v593q0 44 39 44h68q35 0 35 -43v-595z" />
    <glyph glyph-name="Lslash" unicode="&#x141;" horiz-adv-x="753" 
d="M747 40q0 -17 -12.5 -28.5t-26.5 -11.5h-475q-42 0 -42 42v134q0 22 -25 22q-6 0 -10 -4l-40 -42q-17 -18 -32 -18q-13 0 -26 14l-48 49q-11 12 -11 24q0 15 16 31l137 136q39 39 39 94v380q0 43 35 43h68q39 0 39 -44v-247q0 -10 15 -12q14 -2 22 6l60 59q11 11 26 11
q17 0 31 -14l42 -42q12 -12 12 -29q0 -16 -11 -27l-164 -162q-33 -33 -33 -76v-145q0 -41 38 -41h338q38 0 38 -42v-60z" />
    <glyph glyph-name="lslash" unicode="&#x142;" horiz-adv-x="552" 
d="M536 566l-162 -163q-33 -33 -33 -85v-280q0 -38 -42 -38h-60q-17 0 -28.5 12.5t-11.5 26.5v137q0 30 -15 30q-9 0 -17 -8l-45 -46q-17 -18 -32 -18q-13 0 -26 14l-48 49q-11 12 -11 24q0 15 16 31l146 146q32 32 32 84v379q0 44 39 44h68q35 0 35 -43v-242q0 -28 14 -28
q9 0 20 12l61 63q11 11 26 11q17 0 31 -14l42 -42q12 -12 12 -28q0 -17 -11 -28z" />
    <glyph glyph-name="OE" unicode="&#x152;" horiz-adv-x="1086" 
d="M1020 40q0 -17 -12.5 -28.5t-26.5 -11.5h-547q-145 0 -248 103t-103 248v203q0 145 103 248t248 103h547q14 0 26.5 -11.5t12.5 -28.5v-60q0 -42 -38 -42h-338q-38 0 -38 -41v-142q0 -17 12 -29t29 -12h287q38 0 38 -42v-60q0 -17 -12.5 -28.5t-26.5 -11.5h-284
q-17 0 -30 -13t-13 -30v-164q0 -48 38 -48h338q38 0 38 -42v-60zM464 178v554q0 33 -30 33q-87 0 -149 -62t-62 -149v-203q0 -87 62 -149t149 -62q30 0 30 38z" />
    <glyph glyph-name="oe" unicode="&#x153;" horiz-adv-x="1140" 
d="M1091 389q0 -36 -33 -45l-357 -94q-35 -9 -23 -40q36 -95 132 -95q81 0 119 69q17 30 45 13l66 -40q23 -14 10 -35q-38 -63 -103.5 -101t-142.5 -38q-111 0 -191 76q-20 19 -45 -3q-80 -73 -191 -73q-115 0 -196.5 83t-81.5 199v136q0 117 84.5 200t202.5 83
q102 0 181 -69q14 -12 31 -12q13 0 23 8q83 73 192 73q115 0 196.5 -83t81.5 -199v-13zM925 485q-43 67 -118 67q-54 0 -92.5 -38t-45.5 -93q-2 -15 6.5 -21.5t20.5 -3.5l216 57q29 8 13 32zM522 265v136q0 62 -41 106.5t-101 44.5q-59 0 -99 -44.5t-40 -105.5v-136
q0 -62 41 -106.5t101 -44.5q59 0 99 44.5t40 105.5z" />
    <glyph glyph-name="Scaron" unicode="&#x160;" horiz-adv-x="624" 
d="M545 1225q10 -10 10 -21q0 -12 -13 -25l-192 -191q-24 -24 -49 0l-189 188q-8 8 -8 23q-1 15 10 25l29 28q25 24 47 2l121 -119q15 -15 31 1l122 120q15 14 26 14q10 0 21 -11zM591 261q-4 -120 -92.5 -203t-209.5 -78q-150 6 -231 129q-17 26 3 41l82 59q8 6 16 6
q15 0 28 -19q41 -59 107 -62q56 -2 99 37.5t44 95.5q1 55 -39.5 99t-92.5 46q-106 5 -178 81.5t-68 181.5q5 106 81.5 178t181.5 69q115 -4 187 -89q15 -18 -2 -31l-85 -66q-17 -13 -28 0q-29 36 -77 38q-44 1 -76.5 -29.5t-33.5 -75.5q-1 -43 30 -74t73 -33
q120 -4 202.5 -92.5t78.5 -208.5z" />
    <glyph glyph-name="scaron" unicode="&#x161;" horiz-adv-x="564" 
d="M510 1036q10 -10 10 -21q0 -12 -13 -25l-192 -191q-24 -24 -49 0l-189 188q-8 8 -8 23q-1 15 10 25l29 28q25 24 47 2l121 -119q15 -15 31 1l122 120q15 14 26 14q10 0 21 -11zM490 199q-3 -93 -71.5 -156.5t-161.5 -60.5q-117 4 -173 92q-17 26 7 43l65 45q28 19 46 -5
q22 -29 60 -31q33 -1 58 22t26 56t-23 59t-55 27q-83 3 -139 63.5t-53 142.5q3 83 63.5 139t142.5 54q42 -1 84 -22q38 -20 57 -44q16 -21 -7 -42l-52 -48q-12 -11 -25 -11t-27 13t-35 14q-25 1 -42.5 -16t-18.5 -42q-1 -24 16.5 -41t40.5 -18q93 -3 156.5 -71.5
t60.5 -161.5z" />
    <glyph glyph-name="Ydieresis" unicode="&#x178;" horiz-adv-x="682" 
d="M541 1038q0 -36 -25.5 -61.5t-61.5 -25.5t-61.5 25.5t-25.5 61.5t25.5 61.5t61.5 25.5t61.5 -25.5t25.5 -61.5zM328 1038q0 -36 -25.5 -61.5t-61.5 -25.5t-61.5 25.5t-25.5 61.5t25.5 61.5t61.5 25.5t61.5 -25.5t25.5 -61.5zM682 859l-257 -490q-12 -23 -12 -49v-282
q0 -38 -42 -38h-60q-17 0 -28.5 12.5t-11.5 26.5v283q0 28 -10 47l-257 490q-5 9 -5 17q0 29 37 29h72q41 0 61 -40l149 -291q11 -22 26 -22q14 0 26 23l147 290q20 40 61 40h72q37 0 37 -29q0 -8 -5 -17z" />
    <glyph glyph-name="Zcaron" unicode="&#x17d;" horiz-adv-x="808" 
d="M636 1225q10 -10 10 -21q0 -12 -13 -25l-192 -191q-24 -24 -49 0l-189 188q-8 8 -8 23q-1 15 10 25l29 28q25 24 47 2l121 -119q15 -15 31 1l122 120q15 14 26 14q10 0 21 -11zM771 40q0 -17 -12.5 -28.5t-26.5 -11.5h-669q-24 0 -24 25q0 14 8 27l423 675q8 13 8 21
q0 15 -33 15h-343q-44 0 -44 39v68q0 35 43 35h626q29 0 29 -29q0 -6 -3 -11l-436 -688q-10 -15 -10 -23q0 -12 23 -12h403q38 0 38 -42v-60z" />
    <glyph glyph-name="zcaron" unicode="&#x17e;" horiz-adv-x="717" 
d="M594 1036q10 -10 10 -21q0 -12 -13 -25l-192 -191q-24 -24 -49 0l-189 188q-8 8 -8 23q-1 15 10 25l29 28q25 24 47 2l121 -119q15 -15 31 1l122 120q15 14 26 14q10 0 21 -11zM650 40q0 -17 -12.5 -28.5t-26.5 -11.5h-557q-34 0 -34 32q0 13 8 25l308 437q3 5 3 12
q0 28 -23 28h-220q-44 0 -44 39v68q0 35 43 35h496q12 0 22 -11t10 -25q0 -10 -6 -18l-313 -442q-5 -7 -5 -16q0 -22 25 -22h288q38 0 38 -42v-60z" />
    <glyph glyph-name="florin" unicode="&#x192;" horiz-adv-x="460" 
d="M435 576q0 -42 -38 -42h-80q-22 0 -22 -21v-579q0 -73 -40 -122q-44 -52 -118 -52h-82q-14 0 -26.5 11.5t-12.5 28.5v60q0 42 38 42h62q37 0 37 41v570q0 21 -21 21h-46q-43 0 -43 35v68q0 39 44 39h42q24 0 24 23v48q0 69 42 113.5t117 44.5h82q14 0 26.5 -11.5
t12.5 -28.5v-60q0 -42 -38 -42h-62q-38 0 -38 -41v-23q0 -23 23 -23h78q14 0 26.5 -11.5t12.5 -28.5v-60z" />
    <glyph glyph-name="circumflex" unicode="&#x2c6;" horiz-adv-x="657" 
d="M545 778l-34 -34q-11 -11 -21 -11q-11 0 -26 14l-122 120q-16 16 -31 1l-121 -119q-22 -22 -47 2l-29 28q-11 10 -10 25q0 15 8 23l189 188q25 24 49 0l192 -191q13 -13 13 -25q0 -11 -10 -21z" />
    <glyph glyph-name="caron" unicode="&#x2c7;" horiz-adv-x="657" 
d="M545 1036q10 -10 10 -21q0 -12 -13 -25l-192 -191q-24 -24 -49 0l-189 188q-8 8 -8 23q-1 15 10 25l29 28q25 24 47 2l121 -119q15 -15 31 1l122 120q15 14 26 14q10 0 21 -11z" />
    <glyph glyph-name="breve" unicode="&#x2d8;" horiz-adv-x="595" 
d="M546 930q-50 -168 -249 -168q-92 0 -157 40q-70 44 -93 124q-12 42 17 57l52 25q8 4 16 4q24 0 35 -29q14 -37 50 -63t80 -26t81 29q33 27 48 63q9 22 34 22q10 0 20 -5l46 -22q31 -15 20 -51z" />
    <glyph glyph-name="dotaccent" unicode="&#x2d9;" 
d="M230 798q0 -43 -42 -43h-56q-44 0 -44 40v72q0 38 38 38h56q19 0 33.5 -13t14.5 -31v-63z" />
    <glyph glyph-name="ring" unicode="&#x2da;" horiz-adv-x="474" 
d="M380 853q0 -58 -41 -98.5t-99 -40.5t-99 40.5t-41 98.5t41 99t99 41t99 -41t41 -99zM310 854q0 28 -20.5 49t-49.5 21q-28 0 -49 -21t-21 -49q0 -30 20.5 -50.5t49.5 -20.5t49.5 20.5t20.5 50.5z" />
    <glyph glyph-name="ogonek" unicode="&#x2db;" horiz-adv-x="676" 
d="M421 -170l-39 -40q-14 -15 -35 -15q-19 0 -30 13l-98 112q-14 13 -14 31q0 16 13 29l25 25q15 15 32 15q14 0 28 -12l118 -104q11 -10 11 -26q0 -17 -11 -28z" />
    <glyph glyph-name="tilde" unicode="&#x2dc;" horiz-adv-x="647" 
d="M621 859q-58 -83 -170 -83q-75 0 -129.5 36.5t-91.5 36.5q-34 0 -70 -39q-11 -9 -20 -9t-28 15l-30 24q-11 9 -11 20q0 13 15 31q62 73 148 73q69 0 123 -35.5t85 -35.5q52 0 90 48q7 9 20 9q16 0 28 -14l31 -34q23 -25 10 -43z" />
    <glyph glyph-name="hungarumlaut" unicode="&#x2dd;" horiz-adv-x="549" 
d="M477 846l-77 -92q-14 -16 -33 -16q-15 0 -27 10l-43 36q-18 15 -18 33q0 14 10 26l83 99q11 13 28 13q14 0 25 -9l43 -36q18 -15 18 -38q0 -15 -9 -26zM252 846l-77 -92q-14 -16 -33 -16q-15 0 -27 10l-43 36q-18 15 -18 33q0 14 10 26l83 99q11 13 28 13q14 0 25 -9
l43 -36q18 -15 18 -38q0 -15 -9 -26z" />
    <glyph glyph-name="endash" unicode="&#x2013;" horiz-adv-x="690" 
d="M619 325q0 -17 -12.5 -28.5t-26.5 -11.5h-459q-44 0 -44 39v68q0 35 43 35h461q38 0 38 -42v-60z" />
    <glyph glyph-name="emdash" unicode="&#x2014;" horiz-adv-x="828" 
d="M745 325q0 -17 -12.5 -28.5t-26.5 -11.5h-585q-44 0 -44 39v68q0 35 43 35h587q38 0 38 -42v-60z" />
    <glyph glyph-name="quoteleft" unicode="&#x2018;" 
d="M214 707q0 -40 -44 -40h-56q-42 0 -42 43v98q0 35 28 73t64 50q6 2 13.5 -8t7.5 -18q0 -5 -4 -7q-46 -20 -50 -53q-3 -28 19 -28h26q38 0 38 -38v-72z" />
    <glyph glyph-name="quoteright" unicode="&#x2019;" 
d="M230 764q0 -35 -28 -73t-64 -50q-6 -2 -13.5 8t-7.5 18q0 5 4 7q46 20 50 53q3 28 -19 28h-26q-38 0 -38 38v72q0 40 44 40h56q42 0 42 -43v-98z" />
    <glyph glyph-name="quotesinglbase" unicode="&#x201a;" 
d="M230 9q0 -35 -28 -73t-64 -50q-6 -2 -13.5 8t-7.5 18q0 5 4 7q46 20 50 53q3 28 -19 28h-26q-38 0 -38 38v72q0 40 44 40h56q42 0 42 -43v-98z" />
    <glyph glyph-name="quotedblleft" unicode="&#x201c;" horiz-adv-x="528" 
d="M418 707q0 -40 -44 -40h-56q-42 0 -42 43v98q0 35 28 73t64 50q6 2 13.5 -8t7.5 -18q0 -5 -4 -7q-46 -20 -50 -53q-3 -28 19 -28h26q38 0 38 -38v-72zM214 707q0 -40 -44 -40h-56q-42 0 -42 43v98q0 35 28 73t64 50q6 2 13.5 -8t7.5 -18q0 -5 -4 -7q-46 -20 -50 -53
q-3 -28 19 -28h26q38 0 38 -38v-72z" />
    <glyph glyph-name="quotedblright" unicode="&#x201d;" horiz-adv-x="528" 
d="M434 764q0 -35 -28 -73t-64 -50q-6 -2 -13.5 8t-7.5 18q0 5 4 7q46 20 50 53q3 28 -19 28h-26q-38 0 -38 38v72q0 40 44 40h56q42 0 42 -43v-98zM230 764q0 -35 -28 -73t-64 -50q-6 -2 -13.5 8t-7.5 18q0 5 4 7q46 20 50 53q3 28 -19 28h-26q-38 0 -38 38v72q0 40 44 40
h56q42 0 42 -43v-98z" />
    <glyph glyph-name="quotedblbase" unicode="&#x201e;" horiz-adv-x="507" 
d="M440 9q0 -35 -28 -73t-64 -50q-6 -2 -13.5 8t-7.5 18q0 5 4 7q46 20 50 53q3 28 -19 28h-26q-38 0 -38 38v72q0 40 44 40h56q42 0 42 -43v-98zM230 9q0 -35 -28 -73t-64 -50q-6 -2 -13.5 8t-7.5 18q0 5 4 7q46 20 50 53q3 28 -19 28h-26q-38 0 -38 38v72q0 40 44 40h56
q42 0 42 -43v-98z" />
    <glyph glyph-name="dagger" unicode="&#x2020;" horiz-adv-x="557" 
d="M532 524q0 -17 -12.5 -28.5t-26.5 -11.5l-120 50q-6 2 -10 2q-13 0 -13 -22l-10 -716q-1 -38 -42 -38h-40q-39 0 -40 39l-10 712q0 25 -17 25q-3 0 -7 -2l-105 -50q-44 0 -44 39v118q0 35 43 35h109q21 0 21 21l-20 165q-5 43 35 43h108q44 0 39 -44l-20 -164
q0 -21 22 -21h122q38 0 38 -42v-110z" />
    <glyph glyph-name="daggerdbl" unicode="&#x2021;" horiz-adv-x="557" 
d="M532 42q0 -42 -38 -42h-122q-22 0 -22 -21l20 -175q5 -44 -39 -44h-108q-40 0 -35 43l20 176q0 21 -21 21h-109q-43 0 -43 35v116q0 39 44 39l105 -50q4 -2 7 -2q16 0 17 25q4 109 4 170q0 64 -4 178q-1 25 -17 25q-3 0 -7 -2l-105 -50q-44 0 -44 39v118q0 35 43 35h109
q21 0 21 21l-20 165q-5 43 35 43h108q44 0 39 -44l-20 -164q0 -21 22 -21h122q38 0 38 -42v-110q0 -17 -12.5 -28.5t-26.5 -11.5l-120 50q-6 2 -10 2q-13 0 -13 -22q-4 -115 -4 -180q0 -63 4 -174q1 -22 13 -22q4 0 10 2l120 50q14 0 26.5 -11.5t12.5 -28.5v-108z" />
    <glyph glyph-name="bullet" unicode="&#x2022;" horiz-adv-x="549" 
d="M424 265q0 -61 -40 -105.5t-99 -44.5q-60 0 -101 44.5t-41 106.5v136q0 61 40 105.5t99 44.5q60 0 101 -44.5t41 -106.5v-136z" />
    <glyph glyph-name="ellipsis" unicode="&#x2026;" horiz-adv-x="1002" 
d="M911 44q0 -18 -14.5 -31t-33.5 -13h-56q-38 0 -38 38v72q0 40 44 40h56q42 0 42 -43v-63zM572 44q0 -18 -14.5 -31t-33.5 -13h-56q-38 0 -38 38v72q0 40 44 40h56q42 0 42 -43v-63zM230 44q0 -18 -14.5 -31t-33.5 -13h-56q-38 0 -38 38v72q0 40 44 40h56q42 0 42 -43v-63
z" />
    <glyph glyph-name="perthousand" unicode="&#x2030;" horiz-adv-x="1712" 
d="M1629 196q0 -91 -65 -155.5t-156 -64.5t-156 64.5t-65 155.5q0 92 64.5 156.5t156.5 64.5q91 0 156 -65t65 -156zM1121 196q0 -91 -65 -155.5t-156 -64.5t-156 64.5t-65 155.5q0 92 64.5 156.5t156.5 64.5q91 0 156 -65t65 -156zM849 609l-435 -637q-11 -16 -30 -16
q-13 0 -26 9l-24 17q-33 23 -11 55l337 501q3 5 3 11q0 13 -20.5 25.5t-75.5 16.5q-51 3 -78 -3t-27 -25q0 -5 3 -12q17 -43 17 -85q0 -91 -65 -155.5t-156 -64.5t-156 64.5t-65 155.5q0 92 64.5 156.5t156.5 64.5q61 0 159.5 -16t164.5 -16q68 0 148 12q21 3 40 14t25 11
q7 0 14 -5l33 -22q16 -10 16 -26q0 -13 -12 -30zM1508 194q0 41 -30 71t-71 30t-71 -30t-30 -71t30 -71t71 -30t71 30t30 71zM1000 194q0 41 -30 71t-71 30t-71 -30t-30 -71t30 -71t71 -30t71 30t30 71zM361 464q0 41 -30 71t-71 30t-71 -30t-30 -71t30 -71t71 -30t71 30
t30 71z" />
    <glyph glyph-name="guilsinglleft" unicode="&#x2039;" horiz-adv-x="534" 
d="M469 53l-48 -48q-11 -11 -23 -11q-15 0 -32 17l-313 312q-13 13 -13 30q0 18 13 31l309 309q10 10 27 10t29 -12l42 -42q14 -14 14 -31q0 -14 -11 -25l-212 -212q-10 -10 -10 -25q0 -19 12 -31l213 -214q17 -17 17 -31q0 -13 -14 -27z" />
    <glyph glyph-name="guilsinglright" unicode="&#x203a;" horiz-adv-x="534" 
d="M483 323l-313 -312q-17 -17 -32 -17q-12 0 -23 11l-48 48q-14 14 -14 27q0 14 17 31l213 214q12 12 12 31q0 15 -10 25l-212 212q-11 11 -11 25q0 17 14 31l42 42q12 12 29 12t27 -10l309 -309q13 -13 13 -31q0 -17 -13 -30z" />
    <glyph glyph-name="fraction" unicode="&#x2044;" horiz-adv-x="594" 
d="M566 603l-435 -621q-11 -16 -30 -16q-14 0 -26 9l-49 34q-14 10 -17 27q-2 17 6 28l434 620q16 22 33 22q11 0 24 -9l56 -39q15 -11 15 -26q0 -13 -11 -29z" />
    <glyph glyph-name="trademark" unicode="&#x2122;" horiz-adv-x="1039" 
d="M936 263q0 -33 -35 -33h-36q-34 0 -34 34v246q0 17 -5 17t-9 -9l-83 -178q-14 -31 -46 -31h-14q-32 0 -46 31l-83 182q-2 5 -7 5q-6 0 -6 -15v-248q0 -34 -34 -34h-36q-35 0 -35 33v411q0 14 -13 14h-98q-13 0 -13 -15v-407q0 -36 -31 -36h-41q-33 0 -33 37v406
q0 15 -13 15h-131q-32 0 -32 35v36q0 34 33 34h439q33 0 49 -32l130 -268q9 -19 17 -2l130 269q16 33 49 33h35q32 0 32 -35v-495z" />
    <glyph glyph-name="partialdiff" unicode="&#x2202;" horiz-adv-x="840" 
d="M771 337q-1 -145 -103.5 -248t-247.5 -103q-146 0 -248.5 102.5t-102.5 248.5q0 132 86 230.5t214 116.5q16 2 16 16q0 7 -6 14l-121 140q-14 17 -14 30q0 14 13 25l52 44q14 12 26 12q14 0 32 -21l302 -355q55 -64 77 -117q26 -59 25 -135zM631 337q0 87 -62 149
t-149 62t-149 -62t-62 -149t62 -149t149 -62t149 62t62 149z" />
    <glyph glyph-name="uniF000" unicode="&#xf000;" horiz-adv-x="639" 
d="M589 553q20 -23 -15 -29q-10 -2 -11 -11t-4 -10.5t-6 -1.5t-11.5 5.5t-18.5 3.5q-10 -4 -12 -15t-5.5 -13.5t-6.5 -2.5t-9 2t-9 2q-7 0 -14.5 -9t-5.5 -19q3 -12 1 -17t-13 -7.5t-14 -20.5q-2 -12 6.5 -19.5t8.5 -13.5t-9 -14t-8 -21q1 -12 12.5 -17t12.5 -11t-7 -14.5
t-6 -17.5t14.5 -10.5t15.5 -6t1 -15t6 -16.5q8 -9 17.5 -7.5t13.5 -0.5q3 -9 18 -24q8 -4 18 -1q20 5 21 5q12 2 16 -9q5 -11 -2 -29q-46 -120 -150 -120q-18 0 -45 3.5t-35 3.5q-5 0 -24.5 -2.5t-32.5 -2.5q-151 0 -219 270q-12 48 -12 91q0 91 49 144.5t135 53.5
q30 0 64 -7q9 -2 14 2.5t2 17.5q-4 14 -17.5 35t-36.5 33q-27 13 -29 15t-2 6q0 9 10.5 19.5t19.5 8.5q7 -1 17 -11t13 -10q6 0 6 18q0 53 34 71q27 14 56 14q44 0 81 -29q34 -27 34 -49q0 -15 -44 -16q-51 -2 -70 -31q-17 -25 -43 -19q-8 2 -11.5 -7t-3.5 -10q8 -17 11 -28
q10 -32 33 -27q33 7 62 7q89 0 139 -59z" />
    <glyph glyph-name="uniF001" unicode="&#xf001;" horiz-adv-x="831" 
d="M722 798q0 -43 -42 -43h-56q-44 0 -44 40v72q0 38 38 38h56q19 0 33.5 -13t14.5 -31v-63zM722 38q0 -38 -42 -38h-60q-17 0 -28.5 12.5t-11.5 26.5v453q0 42 -43 42h-220q-22 0 -22 -21v-469q0 -44 -39 -44h-68q-35 0 -35 43v470q0 21 -21 21h-46q-43 0 -43 35v68
q0 39 44 39h42q24 0 24 23v48q0 69 42 113.5t117 44.5h82q14 0 26.5 -11.5t12.5 -28.5v-60q0 -42 -38 -42h-62q-38 0 -38 -41v-23q0 -23 23 -23h369q35 0 35 -43v-595z" />
    <glyph glyph-name="uniF002" unicode="&#xf002;" horiz-adv-x="786" 
d="M686 38q0 -38 -42 -38h-60q-17 0 -28.5 12.5t-11.5 26.5v459q0 36 -37 36h-190q-22 0 -22 -21v-469q0 -44 -39 -44h-68q-35 0 -35 43v470q0 21 -21 21h-46q-43 0 -43 35v68q0 39 44 39h42q24 0 24 23v48q0 69 42 113.5t117 44.5h82q14 0 26.5 -11.5t12.5 -28.5v-60
q0 -42 -38 -42h-62q-38 0 -38 -41v-23q0 -23 23 -23h183q43 0 43 41v144q0 44 39 44h68q35 0 35 -43v-824z" />
    </font>
</defs>
</svg>
